<svg width="288" height="262" viewBox="0 0 288 262" fill="none" xmlns="http://www.w3.org/2000/svg">
<path d="M162.089 279.33C160.089 277.256 160.012 274.048 161.831 271.814L204.834 218.983L258.503 257.819C260.82 259.496 261.584 262.581 260.225 265.097C253.424 277.687 232.878 313.297 216.875 315.604C200.912 317.905 171.979 289.589 162.089 279.33Z" fill="#FF9E77"/>
<path fill-rule="evenodd" clip-rule="evenodd" d="M218.294 178.969C230.147 166.332 245.996 153.305 257.96 157.729C274.191 163.73 265.635 202.105 260.227 221.254C260.525 222.507 260.766 223.766 260.948 225.029C264.806 251.796 241.663 277.282 211.391 281.646C181.119 286.009 151.143 268.181 147.284 241.414C147.071 239.936 146.939 238.438 146.884 236.927C136.22 219.878 117.79 186.177 131.499 175.959C141.739 168.327 160.655 176.376 175.603 185.163C181.86 181.115 188.866 178.29 196.336 177.213C203.776 176.141 211.228 176.867 218.294 178.969Z" fill="white"/>
<path fill-rule="evenodd" clip-rule="evenodd" d="M156.833 262.403C185.177 257.61 204.393 229.013 199.908 197.901C198.856 190.609 196.595 183.817 193.381 177.735C187.016 179.063 181.028 181.654 175.603 185.163C160.655 176.376 141.739 168.327 131.499 175.959C117.79 186.177 136.22 219.878 146.884 236.927C146.938 238.438 147.071 239.936 147.284 241.414C148.42 249.299 151.824 256.408 156.833 262.403Z" fill="#FED402"/>
<path fill-rule="evenodd" clip-rule="evenodd" d="M202.712 176.725C208.006 176.669 213.249 177.468 218.295 178.969C230.148 166.332 245.996 153.305 257.96 157.729C274.191 163.731 265.635 202.105 260.227 221.254C260.525 222.508 260.766 223.767 260.948 225.029C262.071 232.819 260.907 240.501 257.946 247.584C230.887 248.703 206.5 227.291 202.216 197.569C201.182 190.401 201.407 183.366 202.712 176.725Z" fill="#FED402"/>
<g style="mix-blend-mode:multiply">
<path d="M136.579 184.379C129.568 190.503 140.294 210.918 145.382 219.65C146.353 221.317 148.781 221.062 149.526 219.283C153.903 208.819 159.08 202.141 167.502 192.398C168.461 191.289 168.18 189.595 166.875 188.925C160.547 185.676 143.805 178.068 136.579 184.379Z" fill="#FED402" fill-opacity="0.5"/>
<path d="M255.684 167.209C264.14 171.103 259.617 193.717 257.202 203.53C256.741 205.403 254.34 205.845 253.123 204.348C245.969 195.547 239.116 190.603 228.286 183.635C227.052 182.842 226.844 181.138 227.906 180.127C233.058 175.223 246.97 163.195 255.684 167.209Z" fill="#FED402" fill-opacity="0.5"/>
</g>
<ellipse cx="179.828" cy="226.122" rx="6.41232" ry="8.16114" transform="rotate(-8.203 179.828 226.122)" fill="#56392B"/>
<ellipse cx="181.969" cy="224.635" rx="1.74882" ry="2.33175" transform="rotate(-8.203 181.969 224.635)" fill="white"/>
<ellipse cx="6.41232" cy="8.16114" rx="6.41232" ry="8.16114" transform="matrix(-0.989769 0.142681 0.142681 0.989769 233.476 210.143)" fill="#56392B"/>
<ellipse cx="1.74882" cy="2.33175" rx="1.74882" ry="2.33175" transform="matrix(-0.989769 0.142681 0.142681 0.989769 227.218 215.757)" fill="white"/>
<path d="M214.961 236.96C215.283 239.19 211.927 241.52 207.466 242.163C203.005 242.806 199.128 241.519 198.806 239.288C198.485 237.058 201.674 233.574 206.135 232.931C210.596 232.288 214.64 234.729 214.961 236.96Z" fill="#56392B"/>
<circle cx="210.096" cy="235.894" r="1.16588" transform="rotate(-8.203 210.096 235.894)" fill="white"/>
<path d="M206.634 236.393L207.633 243.317C208 245.866 206.231 248.23 203.682 248.598L201.951 248.847C200.358 249.077 198.88 247.972 198.65 246.378V246.378" stroke="#56392B" stroke-width="2.33175" stroke-linecap="round" stroke-linejoin="round"/>
<path d="M206.635 236.393L207.633 243.317C208 245.866 210.365 247.635 212.914 247.267L214.645 247.018C216.238 246.788 217.344 245.31 217.114 243.717V243.717" stroke="#56392B" stroke-width="2.33175" stroke-linecap="round" stroke-linejoin="round"/>
<ellipse cx="176.964" cy="243.025" rx="9.32701" ry="5.82938" transform="rotate(-8.203 176.964 243.025)" fill="#FEB1AA"/>
<ellipse cx="236.97" cy="234.374" rx="9.32701" ry="5.82938" transform="rotate(-8.203 236.97 234.374)" fill="#FEB1AA"/>
<path d="M78.5714 67.3759C79.2859 63.7378 81.841 61.1401 84.2785 61.5737C86.7159 62.0073 88.1126 65.3081 87.3981 68.9461L86.3841 74.1091L88.5616 69.5621C90.1103 66.3281 92.9979 65.1021 95.0111 66.8239C97.0242 68.5456 97.4007 72.5631 95.852 75.7972L88.3739 91.4127C86.8252 94.6467 83.9376 95.8727 81.9244 94.1509C81.2799 93.5997 80.8031 92.8131 80.5035 91.8923C79.7778 92.2891 79.0037 92.4502 78.241 92.3146C77.6161 92.2034 77.0595 91.9037 76.5895 91.4582C75.7938 93.2254 74.515 94.5908 73.046 95.0307C70.5082 95.7905 68.3638 93.501 68.2561 89.9168L67.7364 72.6109C67.6288 69.0268 69.5987 65.5052 72.1365 64.7453C74.6742 63.9855 76.8187 66.275 76.9263 69.8592L77.0798 74.9705L78.5714 67.3759Z" fill="#FAFAFA"/>
<path d="M-32.9285 180.067C-43.151 228.431 -12.2307 275.926 36.134 286.148V286.148C84.4987 296.371 131.993 265.45 142.216 217.086L147.105 193.953L-28.0392 156.934L-32.9285 180.067Z" fill="#A97337"/>
<g style="mix-blend-mode:multiply">
<path fill-rule="evenodd" clip-rule="evenodd" d="M32.4349 251.061C32.2496 251.938 31.8344 252.757 31.2132 253.472C30.5919 254.187 29.7767 254.784 28.814 255.228C27.8514 255.672 26.7602 255.955 25.6027 256.061C24.4453 256.167 23.2442 256.094 22.0682 255.845C20.8921 255.597 19.7641 255.178 18.7485 254.613C17.7329 254.047 16.8496 253.347 16.149 252.551C15.4485 251.755 14.9444 250.88 14.6656 249.975C14.3867 249.069 14.3386 248.152 14.5239 247.275L23.4794 249.168L32.4349 251.061ZM50.346 254.847C50.1607 255.724 49.7455 256.543 49.1242 257.258C48.5029 257.973 47.6877 258.569 46.7251 259.014C45.7624 259.458 44.6712 259.741 43.5138 259.847C42.3563 259.953 41.1553 259.879 39.9792 259.631C38.8032 259.382 37.6751 258.963 36.6595 258.398C35.6439 257.833 34.7606 257.133 34.0601 256.337C33.3595 255.541 32.8555 254.666 32.5766 253.76C32.2978 252.855 32.2497 251.938 32.435 251.061L41.3905 252.954L50.346 254.847ZM67.0353 261.044C67.6566 260.329 68.0717 259.509 68.257 258.633L59.3015 256.74L50.346 254.847C50.1607 255.724 50.2088 256.641 50.4877 257.546C50.7665 258.451 51.2706 259.327 51.9711 260.123C52.6717 260.918 53.555 261.619 54.5706 262.184C55.5862 262.749 56.7142 263.168 57.8903 263.417C59.0663 263.665 60.2674 263.739 61.4248 263.633C62.5823 263.527 63.6735 263.244 64.6361 262.799C65.5988 262.355 66.414 261.759 67.0353 261.044Z" fill="#4B2807" fill-opacity="0.5"/>
</g>
<g style="mix-blend-mode:multiply">
<path fill-rule="evenodd" clip-rule="evenodd" d="M35.5399 236.372C35.3607 237.219 34.9517 238.01 34.3361 238.698C33.7206 239.385 32.9105 239.958 31.9523 240.381C30.994 240.805 29.9062 241.071 28.7512 241.166C27.5961 241.261 26.3962 241.182 25.2202 240.933C24.0441 240.685 22.9149 240.271 21.8969 239.717C20.8789 239.163 19.9922 238.479 19.2873 237.704C18.5824 236.929 18.0731 236.078 17.7885 235.2C17.504 234.322 17.4498 233.434 17.6289 232.586L26.5844 234.479L35.5399 236.372ZM53.451 240.157C53.2718 241.005 52.8628 241.795 52.2472 242.483C51.6316 243.171 50.8216 243.743 49.8633 244.167C48.905 244.59 47.8173 244.857 46.6622 244.952C45.5071 245.047 44.3073 244.967 43.1313 244.719C41.9552 244.47 40.826 244.057 39.808 243.503C38.79 242.949 37.9032 242.265 37.1983 241.49C36.4934 240.715 35.9841 239.864 35.6996 238.986C35.4151 238.108 35.3608 237.219 35.54 236.372L44.4955 238.265L53.451 240.157ZM70.1583 246.269C70.7738 245.581 71.1829 244.791 71.362 243.943L62.4065 242.05L53.451 240.157C53.2719 241.005 53.3261 241.893 53.6107 242.771C53.8952 243.65 54.4045 244.501 55.1094 245.276C55.8143 246.051 56.7011 246.735 57.719 247.289C58.737 247.843 59.8663 248.256 61.0423 248.505C62.2184 248.753 63.4182 248.832 64.5733 248.738C65.7284 248.643 66.8161 248.376 67.7744 247.953C68.7326 247.529 69.5427 246.957 70.1583 246.269Z" fill="#4B2807" fill-opacity="0.5"/>
</g>
<g style="mix-blend-mode:multiply">
<path fill-rule="evenodd" clip-rule="evenodd" d="M28.1361 265.497C27.9076 266.579 27.3955 267.589 26.6293 268.471C25.863 269.353 24.8576 270.088 23.6703 270.636C22.4831 271.184 21.1373 271.533 19.7097 271.664C18.2822 271.795 16.8009 271.704 15.3505 271.398C13.9 271.091 12.5088 270.574 11.2562 269.877C10.0036 269.18 8.9142 268.316 8.05019 267.335C7.18618 266.353 6.56448 265.274 6.22058 264.157C5.87668 263.041 5.81733 261.91 6.0459 260.828L17.091 263.163L28.1361 265.497ZM45.7606 275.305C43.3629 276.412 40.3701 276.686 37.4408 276.067C34.5114 275.447 31.8854 273.986 30.1405 272.004C28.3955 270.022 27.6746 267.681 28.1362 265.497L39.1813 267.832L50.2264 270.166C49.7648 272.35 48.1584 274.199 45.7606 275.305ZM70.8099 277.809C71.5761 276.927 72.0881 275.917 72.3167 274.835L61.2716 272.501L50.2265 270.166C49.9979 271.248 50.0573 272.379 50.4012 273.495C50.7451 274.612 51.3668 275.691 52.2308 276.673C53.0948 277.654 54.1842 278.518 55.4368 279.215C56.6893 279.912 58.0806 280.429 59.531 280.736C60.9815 281.042 62.4628 281.133 63.8903 281.002C65.3178 280.872 66.6637 280.522 67.8509 279.974C69.0382 279.427 70.0436 278.691 70.8099 277.809Z" fill="#4B2807" fill-opacity="0.5"/>
</g>
<path fill-rule="evenodd" clip-rule="evenodd" d="M-1.35154 162.575L-28.0391 156.934L-32.9284 180.066C-40.2324 214.623 -26.5321 248.736 -0.472065 269.126C10.6006 259.804 19.0557 246.069 22.5033 229.757C28.3426 202.13 18.0555 175.449 -1.35154 162.575ZM75.238 285.703C107.889 277.962 134.816 252.093 142.216 217.085L147.105 193.953L118.84 187.979C95.8832 191.899 75.6793 212.136 69.84 239.762C66.3354 256.343 68.6397 272.584 75.238 285.703Z" fill="#62401A"/>
<path d="M77.9347 84.2967C27.2702 73.5881 -21.9781 102.77 -33.3808 149.725C-33.4848 150.094 -33.5772 150.468 -33.6576 150.849L-42.4478 192.437C-44.5341 202.308 -37.7038 212.111 -27.1919 214.333C-16.6799 216.555 -6.46699 210.354 -4.38065 200.483L-1.07042 184.821L-4.56053 201.334C-6.54752 210.735 -0.0424808 220.071 9.9689 222.187C19.9803 224.303 29.7069 218.398 31.6939 208.997L35.184 192.484L31.8738 208.146C29.7874 218.017 36.6177 227.82 47.1297 230.042C57.6416 232.263 67.8545 226.063 69.9409 216.192L69.761 217.043C67.774 226.444 74.2791 235.78 84.2904 237.896C94.3018 240.012 104.028 234.106 106.015 224.706L106.188 223.891C104.126 233.749 110.952 243.531 121.451 245.75C131.963 247.972 142.176 241.771 144.262 231.9L153.053 190.312C153.133 189.932 153.2 189.552 153.254 189.172C161.827 141.62 128.599 95.0053 77.9347 84.2967Z" fill="#DBDBDB"/>
<path fill-rule="evenodd" clip-rule="evenodd" d="M79.6041 76.3988C28.0455 65.5012 -22.5852 98.4635 -33.4827 150.022L-37.4681 168.878L-37.468 168.878L-40.533 183.378C-42.7548 193.89 -36.0343 204.213 -25.5224 206.435C-15.0105 208.657 -4.68768 201.936 -2.46585 191.424L0.599102 176.924L0.599333 176.924L-2.65726 192.331C-4.77329 202.343 1.62715 212.174 11.6385 214.29C21.6499 216.406 31.4811 210.005 33.5971 199.994L36.8537 184.586L36.8539 184.586L33.7889 199.088C31.5671 209.6 38.2876 219.922 48.7995 222.144C59.2873 224.361 69.5869 217.676 71.8406 207.206L71.6643 208.04C69.5483 218.051 75.9487 227.883 85.9601 229.999C95.9715 232.115 105.803 225.714 107.919 215.703L108.099 214.85C105.911 225.344 112.627 235.635 123.121 237.853C133.633 240.075 143.956 233.354 146.177 222.842L152.23 194.208C152.237 194.173 152.244 194.137 152.252 194.102L153.227 189.486C164.125 137.927 131.163 87.2963 79.6041 76.3988Z" fill="#FAFAFA"/>
<path d="M53.4873 220.72C52.7085 220.883 51.8654 220.877 51.0426 220.703L48.9062 220.251C48.0834 220.077 47.3099 219.742 46.6635 219.278L30.7771 207.879C27.8001 205.743 23.3216 206.852 22.9527 209.782C21.9466 217.773 20.6246 223.963 18.3128 231.68C17.4663 234.506 21.1097 237.326 24.6927 236.578L44.6003 232.422C45.3791 232.259 46.2222 232.265 47.045 232.439L47.8127 232.601C48.6355 232.775 49.4089 233.111 50.0553 233.575L66.6593 245.489C69.6172 247.611 74.0664 246.531 74.4572 243.624C75.5375 235.589 76.824 229.366 79.0916 221.587C79.9142 218.764 76.2759 215.963 72.7042 216.708L53.4873 220.72Z" fill="#FFCEB9"/>
<path d="M36.3057 171.207C33.5576 167.685 34.9235 162.513 39.0522 160.808L62.2543 151.223C64.9506 150.109 68.0572 150.852 69.958 153.065L85.1381 170.738C87.8538 173.9 87.0864 178.743 83.5261 180.91L61.7828 194.145C58.8539 195.928 55.0539 195.234 52.9446 192.531L36.3057 171.207Z" fill="#FFD500"/>
<ellipse cx="51.0164" cy="170.819" rx="2.53321" ry="2.30292" transform="rotate(11.9345 51.0164 170.819)" fill="#512E0C"/>
<ellipse cx="70.4168" cy="174.92" rx="2.53321" ry="2.30292" transform="rotate(11.9345 70.4168 174.92)" fill="#512E0C"/>
<circle cx="22.5099" cy="138.274" r="20.2657" transform="rotate(11.9345 22.5099 138.274)" fill="#FFD500"/>
<circle cx="22.5095" cy="138.275" r="13.5105" transform="rotate(11.9345 22.5095 138.275)" fill="#323232"/>
<circle cx="28.2818" cy="135.467" r="5.06642" transform="rotate(11.9345 28.2818 135.467)" fill="white"/>
<circle cx="18.0412" cy="143.084" r="3.37761" transform="rotate(11.9345 18.0412 143.084)" fill="white"/>
<circle cx="108.429" cy="156.434" r="20.2657" transform="rotate(11.9345 108.429 156.434)" fill="#FFD500"/>
<circle cx="108.429" cy="156.435" r="13.5105" transform="rotate(11.9345 108.429 156.435)" fill="#323232"/>
<circle cx="114.201" cy="153.627" r="5.06642" transform="rotate(11.9345 114.201 153.627)" fill="white"/>
<circle cx="103.961" cy="161.244" r="3.37761" transform="rotate(11.9345 103.961 161.244)" fill="white"/>
<ellipse cx="3.03689" cy="165.072" rx="10.1328" ry="6.75523" transform="rotate(11.9345 3.03689 165.072)" fill="#FFCEB9"/>
<ellipse cx="115.393" cy="188.82" rx="10.1328" ry="6.75523" transform="rotate(11.9345 115.393 188.82)" fill="#FFCEB9"/>
<path d="M163.189 126.477L166.792 119.667C167.865 117.639 166.27 115.15 163.527 114.57C160.784 113.991 158.318 115.622 158.479 117.91L159.017 125.596L159.246 129.512L161.741 129.904L163.189 126.477Z" fill="#FFE591"/>
<path d="M164.232 132.001L172.856 135.57C175.423 136.633 178.321 135.533 178.789 133.319C179.258 131.104 177.052 128.926 174.274 128.858L164.944 128.633L160.417 128.434L160.065 130.102L164.232 132.001Z" fill="#FFE591"/>
<path d="M155.829 130.225L146.498 130C143.72 129.932 141.515 127.754 141.983 125.539C142.451 123.324 145.349 122.225 147.917 123.287L156.541 126.857L159.36 128.052L159.467 130.318L155.829 130.225Z" fill="#FFE591"/>
<path d="M158.904 123.984L156.098 118.184C155.041 115.998 151.865 115.016 149.594 116.172C147.323 117.328 147.139 120.022 149.217 121.687L154.732 126.108L158.604 129.376L160.627 128.292L158.904 123.984Z" fill="#FFE591"/>
<path d="M166.9 128.68L173.733 126.869C176.307 126.187 177.229 123.649 175.62 121.673C174.011 119.697 170.709 119.31 168.858 120.881L163.945 125.05L159.842 128.543L161.083 130.723L166.9 128.68Z" fill="#FFE591"/>
<path d="M166.04 132.75L171.555 137.171C173.633 138.836 173.449 141.53 171.179 142.686C168.908 143.842 165.731 142.86 164.674 140.674L161.868 134.874L159.538 130.919L162.394 129.603L166.04 132.75Z" fill="#FFE591"/>
<path d="M156.828 133.809L151.915 137.978C150.064 139.548 146.761 139.161 145.152 137.185C143.544 135.209 144.465 132.671 147.04 131.989L153.872 130.178L159.817 128.661L161 129.888L156.828 133.809Z" fill="#FFE591"/>
<path d="M161.989 133.528L162.519 141.091C162.677 143.343 160.251 144.948 157.551 144.378C154.852 143.807 153.283 141.357 154.338 139.362L157.883 132.66L159.484 128.961L161.508 129.206L161.989 133.528Z" fill="#FFE591"/>
<path d="M159.647 132.928C162.04 133.434 164.311 132.278 164.72 130.346C165.128 128.414 163.519 126.437 161.126 125.931C158.733 125.426 156.462 126.582 156.054 128.514C155.645 130.446 157.254 132.423 159.647 132.928Z" fill="#FFD500"/>
<g style="mix-blend-mode:multiply">
<path fill-rule="evenodd" clip-rule="evenodd" d="M158.573 132.583C158.908 132.731 159.268 132.848 159.647 132.928C162.04 133.434 164.311 132.278 164.72 130.346C165.128 128.413 163.519 126.437 161.126 125.931C160.877 125.879 160.63 125.844 160.385 125.826C162.164 126.612 163.249 128.269 162.905 129.895C162.539 131.627 160.678 132.735 158.573 132.583Z" fill="#FED402" fill-opacity="0.5"/>
</g>
<path d="M139.168 94.3234L143.825 85.2118C145.211 82.4989 143.229 79.2105 139.767 78.4787C136.305 77.7469 133.162 79.9522 133.332 82.9941L133.903 93.2105L134.136 98.4166L137.287 98.9023L139.168 94.3234Z" fill="#FFE591"/>
<path d="M140.408 101.656L151.267 106.28C154.501 107.657 158.183 106.152 158.807 103.199C159.431 100.246 156.673 97.3803 153.159 97.3309L141.358 97.1652L135.634 96.9658L135.164 99.1898L140.408 101.656Z" fill="#FFE591"/>
<path d="M129.802 99.4147L118.001 99.2492C114.487 99.1999 111.728 96.3337 112.353 93.3807C112.977 90.4277 116.659 88.923 119.892 90.2997L130.751 94.9236L134.301 96.4727L134.404 99.4866L129.802 99.4147Z" fill="#FFE591"/>
<path d="M133.783 91.0681L130.317 83.3922C129.011 80.5004 125.006 79.2391 122.117 80.8097C119.227 82.3803 118.956 85.9663 121.56 88.1521L128.474 93.9541L133.326 98.2455L135.9 96.7737L133.783 91.0681Z" fill="#FFE591"/>
<path d="M143.832 97.2002L152.503 94.6923C155.769 93.7475 156.972 90.3583 154.965 87.7528C152.958 85.1473 148.785 84.6801 146.421 86.7962L140.145 92.4129L134.904 97.1198L136.442 100.002L143.832 97.2002Z" fill="#FFE591"/>
<path d="M142.685 102.626L149.599 108.428C152.204 110.614 151.933 114.2 149.043 115.77C146.154 117.341 142.149 116.08 140.843 113.188L137.376 105.512L134.486 100.284L138.118 98.4923L142.685 102.626Z" fill="#FFE591"/>
<path d="M131.015 104.167L124.739 109.784C122.374 111.9 118.201 111.433 116.195 108.828C114.188 106.222 115.391 102.833 118.657 101.888L127.328 99.3802L134.871 97.2767L136.35 98.8926L131.015 104.167Z" fill="#FFE591"/>
<path d="M137.548 103.72L138.11 113.773C138.277 116.767 135.185 118.937 131.778 118.217C128.371 117.497 126.421 114.261 127.785 111.591L132.367 102.625L134.445 97.6807L137.002 97.9771L137.548 103.72Z" fill="#FFE591"/>
<path d="M134.595 102.955C137.615 103.594 140.505 102.023 141.05 99.4467C141.594 96.8705 139.587 94.2645 136.567 93.6261C133.546 92.9877 130.656 94.5586 130.112 97.1349C129.567 99.7111 131.574 102.317 134.595 102.955Z" fill="#FFD500"/>
<g style="mix-blend-mode:multiply">
<path fill-rule="evenodd" clip-rule="evenodd" d="M133.242 102.512C133.663 102.704 134.116 102.854 134.595 102.955C137.615 103.594 140.505 102.023 141.049 99.4466C141.594 96.8704 139.587 94.2645 136.566 93.6261C136.252 93.5596 135.939 93.5171 135.63 93.4972C137.87 94.5168 139.219 96.7061 138.761 98.8744C138.273 101.183 135.902 102.684 133.242 102.512Z" fill="#FED402" fill-opacity="0.5"/>
</g>
<path d="M49.0902 146.975C44.7615 167.455 23.843 180.538 2.21378 175.966C-19.4154 171.394 -33.2508 150.966 -28.9221 130.486C-24.5934 110.006 -3.67489 96.9228 17.9543 101.494C39.5835 106.066 53.4189 126.495 49.0902 146.975Z" stroke="#323232" stroke-width="4.22202"/>
<path d="M158.614 170.124C154.285 190.604 133.367 203.687 111.738 199.115C90.1085 194.544 76.2731 174.115 80.6018 153.635C84.9305 133.155 105.849 120.072 127.478 124.644C149.107 129.215 162.943 149.644 158.614 170.124Z" stroke="#323232" stroke-width="4.22202"/>
<path d="M49.9407 144.138C62.0496 144.618 68.9014 146.104 80.9725 150.697L79.4393 157.951C67.9011 153.617 61.1088 152.155 48.4075 151.392L49.9407 144.138Z" fill="#242424"/>
</svg>
