<svg width="364" height="494" viewBox="0 0 364 494" fill="none" xmlns="http://www.w3.org/2000/svg">
<g filter="url(#filter0_d_18_1391)">
<rect x="29" y="182.379" width="305" height="307" rx="30" fill="#FFF5D1"/>
</g>
<path d="M100.695 9.24023L169.768 0.885799L175.329 146.4L131.258 151.73L100.695 9.24023Z" fill="url(#paint0_linear_18_1391)"/>
<path d="M261.654 7.57178L192.491 -2.35416e-05L188.578 145.568L232.707 150.399L261.654 7.57178Z" fill="url(#paint1_linear_18_1391)"/>
<path d="M92.0999 31.7778L34.9206 49.1464L80.9476 165.353L117.43 154.272L92.0999 31.7778Z" fill="url(#paint2_linear_18_1391)"/>
<path d="M270.504 30.0107L327.876 46.7307L283.168 163.451L246.562 152.783L270.504 30.0107Z" fill="url(#paint3_linear_18_1391)"/>
<path d="M38.0742 86.4414L0.192383 106.113L47.7056 181.699L71.8755 169.147L38.0742 86.4414Z" fill="url(#paint4_linear_18_1391)"/>
<path d="M325.145 84.0591L363.247 103.301L316.593 179.419L292.282 167.143L325.145 84.0591Z" fill="url(#paint5_linear_18_1391)"/>
<g filter="url(#filter1_d_18_1391)">
<path d="M21.0899 175.704C13.0227 161.415 8.98913 154.271 11.1988 149.591C13.4084 144.912 20.5724 143.648 34.9004 141.122L56.8939 137.244C66.1788 135.607 70.8212 134.788 74.2142 137.164C77.6073 139.54 78.4259 144.182 80.063 153.467L87.196 193.92C88.8332 203.205 89.6518 207.848 87.276 211.241C84.9001 214.634 80.2577 215.452 70.9728 217.09L49.1841 220.931C34.8376 223.461 27.6644 224.726 23.9914 221.12C20.3184 217.515 21.6043 209.339 24.1762 192.988C24.7818 189.138 24.9564 185.752 24.417 183.379C23.9338 181.253 22.7253 178.6 21.0899 175.704Z" fill="url(#paint6_linear_18_1391)"/>
</g>
<g filter="url(#filter2_d_18_1391)">
<path d="M341.579 175.704C349.646 161.415 353.68 154.271 351.47 149.591C349.261 144.912 342.097 143.648 327.769 141.122L305.775 137.244C296.49 135.607 291.848 134.788 288.455 137.164C285.062 139.54 284.243 144.182 282.606 153.467L275.473 193.92C273.836 203.205 273.017 207.848 275.393 211.241C277.769 214.634 282.411 215.452 291.696 217.09L313.485 220.931C327.831 223.461 335.005 224.726 338.678 221.12C342.351 217.515 341.065 209.339 338.493 192.988C337.887 189.138 337.713 185.752 338.252 183.379C338.735 181.253 339.944 178.6 341.579 175.704Z" fill="url(#paint7_linear_18_1391)"/>
</g>
<g filter="url(#filter3_d_18_1391)">
<path d="M45.917 152.511C45.917 137.082 45.917 129.368 50.8556 123.716C55.7942 118.063 63.0567 117.079 77.5816 115.112C101.377 111.889 137.301 108.379 180.917 108.379C224.533 108.379 260.457 111.889 284.252 115.112C298.777 117.079 306.04 118.063 310.978 123.716C315.917 129.368 315.917 137.082 315.917 152.511V166.764C315.917 187.136 315.917 197.322 309.536 203.256C303.155 209.189 292.923 208.444 272.457 206.955C242.61 204.783 204.301 202.379 180.917 202.379C157.533 202.379 119.224 204.783 89.377 206.955C68.9114 208.444 58.6786 209.189 52.2978 203.256C45.917 197.322 45.917 187.136 45.917 166.764V152.511Z" fill="url(#paint8_linear_18_1391)"/>
</g>
<path d="M144.844 135.179H146.444V144.987H152.508V146.379H144.844V135.179ZM157.835 145.131C158.848 145.131 159.664 144.79 160.283 144.107L161.115 145.099C160.741 145.547 160.267 145.888 159.691 146.123C159.125 146.358 158.491 146.475 157.787 146.475C156.891 146.475 156.096 146.294 155.403 145.931C154.709 145.558 154.171 145.04 153.787 144.379C153.413 143.718 153.227 142.971 153.227 142.139C153.227 141.318 153.408 140.576 153.771 139.915C154.144 139.254 154.651 138.742 155.291 138.379C155.941 138.006 156.672 137.819 157.483 137.819C158.251 137.819 158.949 137.995 159.579 138.347C160.208 138.688 160.709 139.174 161.083 139.803C161.456 140.432 161.648 141.158 161.659 141.979L154.923 143.291C155.136 143.878 155.493 144.331 155.995 144.651C156.507 144.971 157.12 145.131 157.835 145.131ZM157.483 139.115C156.949 139.115 156.469 139.238 156.043 139.483C155.627 139.728 155.301 140.075 155.067 140.523C154.832 140.96 154.715 141.472 154.715 142.059V142.219L160.139 141.195C160 140.576 159.691 140.075 159.211 139.691C158.731 139.307 158.155 139.115 157.483 139.115ZM166.24 146.475C165.546 146.475 164.88 146.384 164.24 146.203C163.6 146.011 163.098 145.771 162.736 145.483L163.376 144.267C163.749 144.534 164.202 144.747 164.736 144.907C165.269 145.067 165.808 145.147 166.352 145.147C167.696 145.147 168.368 144.763 168.368 143.995C168.368 143.739 168.277 143.536 168.096 143.387C167.914 143.238 167.685 143.131 167.408 143.067C167.141 142.992 166.757 142.912 166.256 142.827C165.573 142.72 165.013 142.598 164.576 142.459C164.149 142.32 163.781 142.086 163.472 141.755C163.162 141.424 163.008 140.96 163.008 140.363C163.008 139.595 163.328 138.982 163.968 138.523C164.608 138.054 165.466 137.819 166.544 137.819C167.109 137.819 167.674 137.888 168.24 138.027C168.805 138.166 169.269 138.352 169.632 138.587L168.976 139.803C168.282 139.355 167.466 139.131 166.528 139.131C165.877 139.131 165.381 139.238 165.04 139.451C164.698 139.664 164.528 139.947 164.528 140.299C164.528 140.576 164.624 140.795 164.816 140.955C165.008 141.115 165.242 141.232 165.52 141.307C165.808 141.382 166.208 141.467 166.72 141.563C167.402 141.68 167.952 141.808 168.368 141.947C168.794 142.075 169.157 142.299 169.456 142.619C169.754 142.939 169.904 143.387 169.904 143.963C169.904 144.731 169.573 145.344 168.912 145.803C168.261 146.251 167.37 146.475 166.24 146.475ZM174.255 146.475C173.562 146.475 172.895 146.384 172.255 146.203C171.615 146.011 171.114 145.771 170.751 145.483L171.391 144.267C171.765 144.534 172.218 144.747 172.751 144.907C173.285 145.067 173.823 145.147 174.367 145.147C175.711 145.147 176.383 144.763 176.383 143.995C176.383 143.739 176.293 143.536 176.111 143.387C175.93 143.238 175.701 143.131 175.423 143.067C175.157 142.992 174.773 142.912 174.271 142.827C173.589 142.72 173.029 142.598 172.591 142.459C172.165 142.32 171.797 142.086 171.487 141.755C171.178 141.424 171.023 140.96 171.023 140.363C171.023 139.595 171.343 138.982 171.983 138.523C172.623 138.054 173.482 137.819 174.559 137.819C175.125 137.819 175.69 137.888 176.255 138.027C176.821 138.166 177.285 138.352 177.647 138.587L176.991 139.803C176.298 139.355 175.482 139.131 174.543 139.131C173.893 139.131 173.397 139.238 173.055 139.451C172.714 139.664 172.543 139.947 172.543 140.299C172.543 140.576 172.639 140.795 172.831 140.955C173.023 141.115 173.258 141.232 173.535 141.307C173.823 141.382 174.223 141.467 174.735 141.563C175.418 141.68 175.967 141.808 176.383 141.947C176.81 142.075 177.173 142.299 177.471 142.619C177.77 142.939 177.919 143.387 177.919 143.963C177.919 144.731 177.589 145.344 176.927 145.803C176.277 146.251 175.386 146.475 174.255 146.475ZM183.471 146.475C182.628 146.475 181.871 146.288 181.199 145.915C180.527 145.542 179.999 145.03 179.615 144.379C179.241 143.718 179.055 142.971 179.055 142.139C179.055 141.307 179.241 140.566 179.615 139.915C179.999 139.254 180.527 138.742 181.199 138.379C181.871 138.006 182.628 137.819 183.471 137.819C184.313 137.819 185.065 138.006 185.727 138.379C186.399 138.742 186.921 139.254 187.295 139.915C187.679 140.566 187.871 141.307 187.871 142.139C187.871 142.971 187.679 143.718 187.295 144.379C186.921 145.03 186.399 145.542 185.727 145.915C185.065 146.288 184.313 146.475 183.471 146.475ZM183.471 145.131C184.015 145.131 184.5 145.008 184.927 144.763C185.364 144.507 185.705 144.155 185.951 143.707C186.196 143.248 186.319 142.726 186.319 142.139C186.319 141.552 186.196 141.035 185.951 140.587C185.705 140.128 185.364 139.776 184.927 139.531C184.5 139.286 184.015 139.163 183.471 139.163C182.927 139.163 182.436 139.286 181.999 139.531C181.572 139.776 181.231 140.128 180.975 140.587C180.729 141.035 180.607 141.552 180.607 142.139C180.607 142.726 180.729 143.248 180.975 143.707C181.231 144.155 181.572 144.507 181.999 144.763C182.436 145.008 182.927 145.131 183.471 145.131ZM194.523 137.819C195.6 137.819 196.454 138.134 197.083 138.763C197.723 139.382 198.043 140.294 198.043 141.499V146.379H196.507V141.675C196.507 140.854 196.31 140.235 195.915 139.819C195.52 139.403 194.955 139.195 194.219 139.195C193.387 139.195 192.731 139.44 192.251 139.931C191.771 140.411 191.531 141.104 191.531 142.011V146.379H189.995V137.899H191.467V139.179C191.776 138.742 192.192 138.406 192.715 138.171C193.248 137.936 193.851 137.819 194.523 137.819ZM207.967 135.179V146.379H206.383V136.571H203.855V135.179H207.967ZM218.288 144.987V146.379H210.24V145.291L214.8 140.891C215.355 140.358 215.728 139.899 215.92 139.515C216.112 139.12 216.208 138.726 216.208 138.331C216.208 137.744 216 137.291 215.584 136.971C215.179 136.64 214.592 136.475 213.824 136.475C212.587 136.475 211.632 136.88 210.96 137.691L209.872 136.747C210.31 136.214 210.88 135.798 211.584 135.499C212.299 135.2 213.094 135.051 213.968 135.051C215.142 135.051 216.075 135.334 216.768 135.899C217.462 136.454 217.808 137.211 217.808 138.171C217.808 138.768 217.68 139.334 217.424 139.867C217.168 140.4 216.683 141.008 215.968 141.691L212.544 144.987H218.288Z" fill="white"/>
<path d="M108.785 158.467C110.129 158.467 111.281 158.723 112.241 159.235C113.201 159.747 113.985 160.387 114.593 161.155C115.233 161.891 115.697 162.707 115.985 163.603C116.273 164.467 116.417 165.267 116.417 166.003C116.417 166.643 116.305 167.187 116.081 167.635C115.857 168.051 115.521 168.259 115.073 168.259C114.401 168.259 113.889 168.131 113.537 167.875C113.217 167.619 112.977 167.315 112.817 166.963C112.657 166.579 112.513 166.163 112.385 165.715C112.289 165.267 112.129 164.867 111.905 164.515C111.681 164.131 111.361 163.811 110.945 163.555C110.529 163.299 109.905 163.171 109.073 163.171C107.185 163.171 105.697 164.131 104.609 166.051C103.553 167.971 103.025 170.835 103.025 174.643C103.025 177.939 103.537 180.563 104.561 182.515C105.617 184.435 107.105 185.395 109.025 185.395C110.369 185.395 111.345 185.123 111.953 184.579C112.593 184.003 113.057 183.379 113.345 182.707C113.665 182.003 113.921 181.379 114.113 180.835C114.337 180.259 114.721 179.971 115.265 179.971C116.001 179.971 116.529 180.179 116.849 180.595C117.201 181.011 117.377 181.539 117.377 182.179C117.377 182.915 117.169 183.747 116.753 184.675C116.337 185.571 115.745 186.419 114.977 187.219C114.241 188.019 113.329 188.691 112.241 189.235C111.185 189.779 110.001 190.051 108.689 190.051C106.897 190.051 105.281 189.667 103.841 188.899C102.433 188.131 101.233 187.043 100.241 185.635C99.2807 184.227 98.5287 182.547 97.9847 180.595C97.4727 178.643 97.2167 176.467 97.2167 174.067C97.2167 171.667 97.4887 169.507 98.0327 167.587C98.5767 165.667 99.3447 164.035 100.337 162.691C101.329 161.347 102.545 160.307 103.985 159.571C105.425 158.835 107.025 158.467 108.785 158.467ZM119.975 174.691C119.975 172.867 120.135 171.171 120.455 169.603C120.775 168.003 121.223 166.611 121.799 165.427C122.375 164.211 123.047 163.235 123.815 162.499C124.583 161.731 125.415 161.251 126.311 161.059C126.823 160.963 127.319 160.787 127.799 160.531C128.279 160.243 128.759 159.955 129.239 159.667C129.719 159.379 130.215 159.139 130.727 158.947C131.271 158.723 131.863 158.611 132.503 158.611C133.847 158.611 135.079 159.059 136.199 159.955C137.319 160.851 138.263 162.035 139.031 163.507C139.831 164.947 140.439 166.579 140.855 168.403C141.303 170.195 141.527 172.003 141.527 173.827C141.527 175.651 141.367 177.507 141.047 179.395C140.727 181.283 140.167 183.011 139.367 184.579C138.567 186.115 137.463 187.379 136.055 188.371C134.679 189.331 132.919 189.811 130.775 189.811C128.631 189.811 126.855 189.379 125.447 188.515C124.071 187.619 122.967 186.451 122.135 185.011C121.335 183.571 120.775 181.955 120.455 180.163C120.135 178.339 119.975 176.515 119.975 174.691ZM128.135 175.075C127.527 175.075 127.095 174.739 126.839 174.067C126.583 173.395 126.407 172.659 126.311 171.859C126.247 171.027 126.215 170.275 126.215 169.603C126.215 168.931 126.167 168.595 126.071 168.595C125.815 168.595 125.591 169.091 125.399 170.083C125.239 171.043 125.159 172.547 125.159 174.595C125.159 175.619 125.223 176.787 125.351 178.099C125.511 179.411 125.799 180.659 126.215 181.843C126.663 182.995 127.255 183.971 127.991 184.771C128.759 185.571 129.751 185.971 130.967 185.971C132.183 185.971 133.143 185.539 133.847 184.675C134.551 183.811 135.079 182.771 135.431 181.555C135.815 180.307 136.055 179.011 136.151 177.667C136.279 176.291 136.343 175.123 136.343 174.163C136.343 173.203 136.263 172.083 136.103 170.803C135.975 169.491 135.751 168.259 135.431 167.107C135.111 165.923 134.695 164.931 134.183 164.131C133.703 163.299 133.111 162.883 132.407 162.883C131.895 162.883 131.495 163.123 131.207 163.603C130.951 164.083 130.759 164.675 130.631 165.379C130.535 166.083 130.487 166.851 130.487 167.683C130.487 168.771 130.535 169.795 130.631 170.755C130.727 171.683 130.775 172.307 130.775 172.627C130.775 173.203 130.583 173.763 130.199 174.307C129.815 174.819 129.127 175.075 128.135 175.075ZM144.619 176.083C144.619 174.547 144.619 173.027 144.619 171.523C144.651 169.987 144.683 168.451 144.715 166.915C144.747 165.827 144.795 164.803 144.859 163.843C144.923 162.851 145.051 161.987 145.243 161.251C145.435 160.483 145.707 159.891 146.059 159.475C146.443 159.027 146.955 158.803 147.595 158.803C148.427 158.803 149.163 159.203 149.803 160.003C150.443 160.771 151.019 161.747 151.531 162.931C152.075 164.083 152.555 165.347 152.971 166.723C153.387 168.067 153.787 169.331 154.171 170.515C154.587 171.667 154.971 172.643 155.323 173.443C155.707 174.211 156.091 174.595 156.475 174.595C156.955 174.595 157.403 174.211 157.819 173.443C158.235 172.643 158.651 171.667 159.067 170.515C159.515 169.331 159.963 168.051 160.411 166.675C160.859 165.299 161.323 164.035 161.803 162.883C162.315 161.699 162.859 160.723 163.435 159.955C164.043 159.155 164.699 158.755 165.403 158.755C166.331 158.755 167.035 159.027 167.515 159.571C168.027 160.083 168.283 160.851 168.283 161.875V165.331C168.283 166.451 168.267 167.795 168.235 169.363C168.203 170.931 168.171 172.547 168.139 174.211C168.139 175.843 168.123 177.443 168.091 179.011C168.059 180.579 168.043 181.923 168.043 183.043C168.043 183.651 168.043 184.323 168.043 185.059C168.043 185.795 167.963 186.483 167.803 187.123C167.643 187.763 167.371 188.307 166.987 188.755C166.603 189.171 166.027 189.379 165.259 189.379C164.779 189.379 164.395 189.251 164.107 188.995C163.851 188.707 163.659 188.371 163.531 187.987C163.403 187.603 163.323 187.203 163.291 186.787C163.259 186.339 163.243 185.939 163.243 185.587C163.243 183.955 163.275 182.339 163.339 180.739C163.403 179.107 163.435 177.475 163.435 175.843C163.435 175.107 163.387 174.547 163.291 174.163C163.195 173.747 163.019 173.539 162.763 173.539C162.539 173.539 162.299 173.763 162.043 174.211C161.787 174.627 161.499 175.171 161.179 175.843C160.891 176.483 160.571 177.187 160.219 177.955C159.899 178.723 159.531 179.443 159.115 180.115C158.699 180.755 158.251 181.299 157.771 181.747C157.291 182.163 156.763 182.371 156.187 182.371C155.483 182.371 154.875 182.163 154.363 181.747C153.851 181.299 153.403 180.755 153.019 180.115C152.635 179.475 152.299 178.787 152.011 178.051C151.755 177.315 151.515 176.627 151.291 175.987C151.099 175.347 150.907 174.819 150.715 174.403C150.555 173.955 150.379 173.731 150.187 173.731C149.995 173.731 149.835 174.147 149.707 174.979C149.643 175.619 149.595 176.371 149.563 177.235C149.563 178.067 149.563 178.915 149.563 179.779C149.563 180.323 149.595 181.139 149.659 182.227C149.723 183.283 149.707 184.339 149.611 185.395C149.515 186.451 149.291 187.379 148.939 188.179C148.587 188.947 148.011 189.331 147.211 189.331C146.475 189.331 145.931 189.091 145.579 188.611C145.227 188.131 144.987 187.555 144.859 186.883C144.731 186.211 144.667 185.507 144.667 184.771C144.667 184.035 144.667 183.427 144.667 182.947C144.635 181.795 144.619 180.659 144.619 179.539C144.619 178.387 144.619 177.235 144.619 176.083ZM172.491 182.707V178.819L172.347 170.227V166.339C172.347 165.379 172.331 164.451 172.299 163.555C172.267 162.659 172.331 161.859 172.491 161.155C172.683 160.419 173.019 159.827 173.499 159.379C174.011 158.899 174.779 158.627 175.803 158.563C176.411 158.499 177.035 158.483 177.675 158.515C178.347 158.515 178.987 158.515 179.595 158.515C182.731 158.515 185.099 159.427 186.699 161.251C188.331 163.043 189.147 165.635 189.147 169.027C189.147 170.691 188.939 172.243 188.523 173.683C188.139 175.123 187.563 176.371 186.795 177.427C186.027 178.483 185.067 179.315 183.915 179.923C182.795 180.531 181.515 180.835 180.075 180.835C179.051 180.835 178.347 180.947 177.963 181.171C177.579 181.395 177.371 181.795 177.339 182.371C177.339 182.915 177.323 183.411 177.291 183.859C177.291 184.307 177.291 184.739 177.291 185.155C177.291 186.019 177.243 186.723 177.147 187.267C177.083 187.811 176.955 188.243 176.763 188.563C176.571 188.851 176.299 189.059 175.947 189.187C175.595 189.283 175.147 189.331 174.603 189.331C173.835 189.331 173.291 188.995 172.971 188.323C172.651 187.651 172.491 186.803 172.491 185.779V182.707ZM179.979 162.691C179.819 162.691 179.643 162.691 179.451 162.691C179.259 162.691 178.987 162.723 178.635 162.787C178.059 162.851 177.739 163.139 177.675 163.651C177.643 164.163 177.627 165.059 177.627 166.339C177.627 166.755 177.627 167.299 177.627 167.971C177.659 168.643 177.675 169.379 177.675 170.179C177.675 170.979 177.675 171.779 177.675 172.579C177.707 173.379 177.723 174.115 177.723 174.787C177.723 175.523 177.931 176.003 178.347 176.227C178.763 176.419 179.099 176.515 179.355 176.515C180.347 176.515 181.147 176.243 181.755 175.699C182.395 175.123 182.875 174.435 183.195 173.635C183.547 172.835 183.771 172.003 183.867 171.139C183.995 170.243 184.059 169.491 184.059 168.883C184.059 168.051 183.995 167.267 183.867 166.531C183.739 165.763 183.515 165.107 183.195 164.563C182.907 163.987 182.491 163.539 181.947 163.219C181.435 162.867 180.779 162.691 179.979 162.691ZM200.357 189.619C200.133 189.619 199.797 189.619 199.349 189.619C198.933 189.619 198.469 189.619 197.957 189.619C197.445 189.651 196.901 189.667 196.325 189.667C195.781 189.667 195.269 189.667 194.789 189.667C194.213 189.667 193.717 189.411 193.301 188.899C192.917 188.387 192.725 187.443 192.725 186.067C192.725 184.051 192.693 181.747 192.629 179.155C192.597 176.531 192.581 173.843 192.581 171.091C192.581 168.243 192.629 165.555 192.725 163.027C192.757 162.515 192.805 162.003 192.869 161.491C192.933 160.947 193.061 160.467 193.253 160.051C193.477 159.603 193.781 159.251 194.165 158.995C194.581 158.707 195.125 158.563 195.797 158.563C196.309 158.563 196.693 158.675 196.949 158.899C197.237 159.091 197.445 159.347 197.573 159.667C197.701 159.987 197.781 160.355 197.813 160.771C197.845 161.155 197.861 161.555 197.861 161.971C197.861 163.315 197.845 164.803 197.813 166.435C197.781 168.035 197.749 169.667 197.717 171.331C197.717 172.995 197.701 174.643 197.669 176.275C197.637 177.875 197.621 179.347 197.621 180.691C197.621 181.619 197.637 182.387 197.669 182.995C197.733 183.603 197.845 184.083 198.005 184.435C198.197 184.787 198.453 185.043 198.773 185.203C199.093 185.331 199.525 185.395 200.069 185.395C200.965 185.395 201.733 185.411 202.373 185.443C203.045 185.443 203.589 185.507 204.005 185.635C204.421 185.763 204.725 185.971 204.917 186.259C205.109 186.547 205.205 186.963 205.205 187.507C205.205 188.083 205.013 188.515 204.629 188.803C204.277 189.091 203.845 189.283 203.333 189.379C202.821 189.507 202.293 189.571 201.749 189.571C201.205 189.603 200.741 189.619 200.357 189.619ZM215.966 158.035C217.47 158.035 218.75 158.259 219.806 158.707C220.862 159.155 221.726 159.715 222.398 160.387C223.102 161.027 223.614 161.731 223.934 162.499C224.254 163.235 224.414 163.923 224.414 164.563C224.414 165.107 224.286 165.571 224.03 165.955C223.806 166.307 223.47 166.483 223.022 166.483C222.222 166.483 221.598 166.275 221.15 165.859C220.702 165.443 220.27 164.995 219.854 164.515C219.47 164.035 219.022 163.587 218.51 163.171C217.998 162.755 217.278 162.547 216.35 162.547C216.254 162.547 216.014 162.563 215.63 162.595C215.278 162.627 214.91 162.707 214.526 162.835C214.142 162.963 213.79 163.155 213.47 163.411C213.182 163.667 213.038 164.003 213.038 164.419C213.038 165.379 213.374 166.291 214.046 167.155C214.75 168.019 215.518 168.851 216.35 169.651C217.182 170.419 217.934 171.155 218.606 171.859C219.31 172.531 219.662 173.171 219.662 173.779C219.662 174.387 219.278 175.027 218.51 175.699C217.742 176.339 216.894 177.043 215.966 177.811C215.038 178.547 214.19 179.363 213.422 180.259C212.654 181.155 212.27 182.163 212.27 183.283C212.27 184.307 212.638 185.043 213.374 185.491C214.11 185.907 214.99 186.115 216.014 186.115C216.942 186.115 217.774 185.763 218.51 185.059C219.278 184.323 219.998 183.523 220.67 182.659C221.342 181.795 221.982 181.011 222.59 180.307C223.198 179.571 223.806 179.203 224.414 179.203C224.894 179.203 225.246 179.395 225.47 179.779C225.726 180.163 225.854 180.659 225.854 181.267C225.854 182.067 225.646 182.995 225.23 184.051C224.814 185.075 224.174 186.051 223.31 186.979C222.478 187.875 221.422 188.643 220.142 189.283C218.894 189.923 217.406 190.243 215.678 190.243C214.59 190.243 213.486 190.115 212.366 189.859C211.278 189.603 210.286 189.203 209.39 188.659C208.494 188.083 207.758 187.347 207.182 186.451C206.638 185.523 206.366 184.419 206.366 183.139C206.366 181.731 206.75 180.547 207.518 179.587C208.318 178.595 209.182 177.763 210.11 177.091C211.038 176.387 211.886 175.779 212.654 175.267C213.454 174.723 213.854 174.211 213.854 173.731C213.854 173.251 213.518 172.739 212.846 172.195C212.206 171.651 211.486 171.011 210.686 170.275C209.886 169.539 209.15 168.675 208.478 167.683C207.838 166.659 207.518 165.443 207.518 164.035C207.518 162.819 207.822 161.827 208.43 161.059C209.038 160.291 209.774 159.683 210.638 159.235C211.502 158.787 212.414 158.483 213.374 158.323C214.366 158.131 215.23 158.035 215.966 158.035ZM227.048 161.395C227.048 160.723 227.192 160.211 227.48 159.859C227.768 159.507 228.12 159.251 228.536 159.091C228.984 158.931 229.48 158.835 230.024 158.803C230.568 158.771 231.08 158.755 231.56 158.755H240.824C241.272 158.755 241.72 158.771 242.168 158.803C242.648 158.835 243.064 158.947 243.416 159.139C243.8 159.299 244.104 159.539 244.328 159.859C244.552 160.179 244.664 160.627 244.664 161.203C244.664 161.971 244.552 162.531 244.328 162.883C244.136 163.203 243.864 163.427 243.512 163.555C243.16 163.683 242.76 163.731 242.312 163.699C241.864 163.667 241.416 163.651 240.968 163.651C240.584 163.651 240.232 163.715 239.912 163.843C239.624 163.971 239.368 164.227 239.144 164.611C238.952 164.963 238.792 165.475 238.664 166.147C238.536 166.787 238.472 167.619 238.472 168.643C238.472 169.699 238.456 170.771 238.424 171.859C238.392 172.915 238.36 173.971 238.328 175.027L238.232 179.251C238.2 180.307 238.168 181.379 238.136 182.467C238.104 183.523 238.088 184.579 238.088 185.635C238.088 186.115 238.072 186.595 238.04 187.075C238.04 187.555 237.96 188.003 237.8 188.419C237.672 188.803 237.448 189.123 237.128 189.379C236.808 189.635 236.328 189.763 235.688 189.763C234.92 189.763 234.328 189.571 233.912 189.187C233.528 188.803 233.24 188.323 233.048 187.747C232.888 187.171 232.808 186.547 232.808 185.875C232.808 185.203 232.808 184.579 232.808 184.003C232.808 181.091 232.888 178.211 233.048 175.363C233.208 172.515 233.288 169.635 233.288 166.723C233.288 166.083 233.24 165.571 233.144 165.187C233.08 164.803 232.936 164.499 232.712 164.275C232.52 164.051 232.232 163.907 231.848 163.843C231.496 163.747 231.048 163.699 230.504 163.699C230.024 163.699 229.56 163.699 229.112 163.699C228.696 163.699 228.328 163.635 228.008 163.507C227.72 163.347 227.48 163.107 227.288 162.787C227.128 162.467 227.048 162.003 227.048 161.395ZM255.574 158.035C257.078 158.035 258.358 158.259 259.414 158.707C260.47 159.155 261.334 159.715 262.006 160.387C262.71 161.027 263.222 161.731 263.542 162.499C263.862 163.235 264.022 163.923 264.022 164.563C264.022 165.107 263.894 165.571 263.638 165.955C263.414 166.307 263.078 166.483 262.63 166.483C261.83 166.483 261.206 166.275 260.758 165.859C260.31 165.443 259.878 164.995 259.462 164.515C259.078 164.035 258.63 163.587 258.118 163.171C257.606 162.755 256.886 162.547 255.958 162.547C255.862 162.547 255.622 162.563 255.238 162.595C254.886 162.627 254.518 162.707 254.134 162.835C253.75 162.963 253.398 163.155 253.078 163.411C252.79 163.667 252.646 164.003 252.646 164.419C252.646 165.379 252.982 166.291 253.654 167.155C254.358 168.019 255.126 168.851 255.958 169.651C256.79 170.419 257.542 171.155 258.214 171.859C258.918 172.531 259.27 173.171 259.27 173.779C259.27 174.387 258.886 175.027 258.118 175.699C257.35 176.339 256.502 177.043 255.574 177.811C254.646 178.547 253.798 179.363 253.03 180.259C252.262 181.155 251.878 182.163 251.878 183.283C251.878 184.307 252.246 185.043 252.982 185.491C253.718 185.907 254.598 186.115 255.622 186.115C256.55 186.115 257.382 185.763 258.118 185.059C258.886 184.323 259.606 183.523 260.278 182.659C260.95 181.795 261.59 181.011 262.198 180.307C262.806 179.571 263.414 179.203 264.022 179.203C264.502 179.203 264.854 179.395 265.078 179.779C265.334 180.163 265.462 180.659 265.462 181.267C265.462 182.067 265.254 182.995 264.838 184.051C264.422 185.075 263.782 186.051 262.918 186.979C262.086 187.875 261.03 188.643 259.75 189.283C258.502 189.923 257.014 190.243 255.286 190.243C254.198 190.243 253.094 190.115 251.974 189.859C250.886 189.603 249.894 189.203 248.998 188.659C248.102 188.083 247.366 187.347 246.79 186.451C246.246 185.523 245.974 184.419 245.974 183.139C245.974 181.731 246.358 180.547 247.126 179.587C247.926 178.595 248.79 177.763 249.718 177.091C250.646 176.387 251.494 175.779 252.262 175.267C253.062 174.723 253.462 174.211 253.462 173.731C253.462 173.251 253.126 172.739 252.454 172.195C251.814 171.651 251.094 171.011 250.294 170.275C249.494 169.539 248.758 168.675 248.086 167.683C247.446 166.659 247.126 165.443 247.126 164.035C247.126 162.819 247.43 161.827 248.038 161.059C248.646 160.291 249.382 159.683 250.246 159.235C251.11 158.787 252.022 158.483 252.982 158.323C253.974 158.131 254.838 158.035 255.574 158.035Z" fill="white"/>
<g filter="url(#filter4_d_18_1391)">
<path d="M170.664 61.8222C174.746 49.2583 176.787 42.9763 180.556 42.9763C184.324 42.9763 186.365 49.2583 190.447 61.8222C191.575 65.2926 192.139 67.0278 193.502 68.0183C194.865 69.0089 196.69 69.0089 200.339 69.0089C213.549 69.0089 220.155 69.0089 221.319 72.5927C222.484 76.1765 217.14 80.059 206.452 87.8239C203.5 89.9687 202.024 91.0411 201.503 92.6438C200.983 94.2466 201.546 95.9818 202.674 99.4522C206.756 112.016 208.797 118.298 205.749 120.513C202.7 122.728 197.357 118.845 186.669 111.08C183.717 108.936 182.241 107.863 180.556 107.863C178.87 107.863 177.394 108.936 174.442 111.08C163.755 118.845 158.411 122.728 155.362 120.513C152.314 118.298 154.355 112.016 158.437 99.4522C159.565 95.9818 160.129 94.2466 159.608 92.6438C159.087 91.0411 157.611 89.9687 154.659 87.8239C143.972 80.059 138.628 76.1765 139.792 72.5927C140.957 69.0089 147.562 69.0089 160.772 69.0089C164.421 69.0089 166.246 69.0089 167.609 68.0183C168.973 67.0278 169.536 65.2926 170.664 61.8222Z" fill="url(#paint9_linear_18_1391)"/>
</g>
<g filter="url(#filter5_d_18_1391)">
<path d="M246.631 83.7924C250.301 76.89 252.137 73.4389 254.306 73.455C254.706 73.458 255.103 73.5279 255.48 73.6619C257.524 74.3889 258.068 78.2595 259.156 86.0008C259.458 88.1505 259.609 89.2253 260.242 90.0004C260.368 90.155 260.507 90.2988 260.657 90.4303C261.409 91.0894 262.478 91.2779 264.616 91.6548C272.315 93.0123 276.164 93.691 276.819 95.7597C276.94 96.1409 276.996 96.5397 276.985 96.9394C276.925 99.1085 273.412 100.822 266.386 104.249C264.435 105.2 263.459 105.676 262.918 106.517C262.81 106.685 262.716 106.862 262.637 107.045C262.243 107.964 262.394 109.039 262.696 111.189C263.784 118.93 264.328 122.801 262.563 124.063C262.238 124.296 261.876 124.472 261.492 124.585C259.411 125.199 256.696 122.387 251.265 116.764C249.757 115.202 249.003 114.422 248.036 114.166C247.843 114.115 247.646 114.081 247.448 114.063C246.451 113.972 245.476 114.447 243.525 115.399C236.499 118.826 232.985 120.539 231.239 119.251C230.918 119.014 230.638 118.724 230.412 118.394C229.185 116.604 231.02 113.153 234.69 106.251C235.709 104.334 236.219 103.376 236.163 102.377C236.152 102.178 236.124 101.98 236.08 101.785C235.858 100.809 235.104 100.029 233.596 98.4671C228.166 92.8438 225.451 90.0321 226.137 87.9734C226.263 87.594 226.452 87.2385 226.696 86.9216C228.019 85.2018 231.868 85.8805 239.567 87.238C241.705 87.6149 242.774 87.8034 243.706 87.4415C243.892 87.3692 244.072 87.2816 244.243 87.1794C245.103 86.6674 245.612 85.7091 246.631 83.7924Z" fill="url(#paint10_linear_18_1391)"/>
</g>
<g filter="url(#filter6_d_18_1391)">
<path d="M115.055 83.7924C111.385 76.89 109.55 73.4389 107.38 73.455C106.98 73.458 106.584 73.5279 106.207 73.6619C104.162 74.3889 103.618 78.2595 102.53 86.0008C102.228 88.1505 102.077 89.2253 101.445 90.0004C101.319 90.155 101.18 90.2988 101.03 90.4303C100.277 91.0894 99.2081 91.2779 97.0703 91.6548C89.3717 93.0123 85.5224 93.691 84.8672 95.7597C84.7465 96.1409 84.6904 96.5397 84.7014 96.9394C84.761 99.1085 88.2741 100.822 95.3003 104.249C97.2514 105.2 98.227 105.676 98.7687 106.517C98.8768 106.685 98.9706 106.862 99.0493 107.045C99.4436 107.964 99.2925 109.039 98.9904 111.189C97.9024 118.93 97.3584 122.801 99.1234 124.063C99.4486 124.296 99.8105 124.472 100.194 124.585C102.275 125.199 104.991 122.387 110.421 116.764C111.929 115.202 112.683 114.422 113.65 114.166C113.843 114.115 114.04 114.081 114.239 114.063C115.235 113.972 116.211 114.447 118.162 115.399C125.188 118.826 128.701 120.539 130.447 119.251C130.769 119.014 131.048 118.724 131.275 118.394C132.501 116.604 130.666 113.153 126.996 106.251C125.977 104.334 125.468 103.376 125.524 102.377C125.535 102.178 125.563 101.98 125.607 101.785C125.828 100.809 126.582 100.029 128.09 98.4671C133.521 92.8438 136.236 90.0321 135.55 87.9734C135.423 87.594 135.234 87.2385 134.991 86.9216C133.667 85.2018 129.818 85.8805 122.119 87.238C119.982 87.6149 118.913 87.8034 117.98 87.4415C117.794 87.3692 117.614 87.2816 117.443 87.1794C116.584 86.6674 116.074 85.7091 115.055 83.7924Z" fill="url(#paint11_linear_18_1391)"/>
</g>
<defs>
<filter id="filter0_d_18_1391" x="29" y="182.379" width="305" height="311" filterUnits="userSpaceOnUse" color-interpolation-filters="sRGB">
<feFlood flood-opacity="0" result="BackgroundImageFix"/>
<feColorMatrix in="SourceAlpha" type="matrix" values="0 0 0 0 0 0 0 0 0 0 0 0 0 0 0 0 0 0 127 0" result="hardAlpha"/>
<feOffset dy="4"/>
<feComposite in2="hardAlpha" operator="out"/>
<feColorMatrix type="matrix" values="0 0 0 0 1 0 0 0 0 0.787333 0 0 0 0 0.468333 0 0 0 1 0"/>
<feBlend mode="normal" in2="BackgroundImageFix" result="effect1_dropShadow_18_1391"/>
<feBlend mode="normal" in="SourceGraphic" in2="effect1_dropShadow_18_1391" result="shape"/>
</filter>
<filter id="filter1_d_18_1391" x="10.5994" y="135.681" width="78.16" height="91.6777" filterUnits="userSpaceOnUse" color-interpolation-filters="sRGB">
<feFlood flood-opacity="0" result="BackgroundImageFix"/>
<feColorMatrix in="SourceAlpha" type="matrix" values="0 0 0 0 0 0 0 0 0 0 0 0 0 0 0 0 0 0 127 0" result="hardAlpha"/>
<feOffset dy="4"/>
<feComposite in2="hardAlpha" operator="out"/>
<feColorMatrix type="matrix" values="0 0 0 0 0.886275 0 0 0 0 0.419608 0 0 0 0 0.117647 0 0 0 1 0"/>
<feBlend mode="normal" in2="BackgroundImageFix" result="effect1_dropShadow_18_1391"/>
<feBlend mode="normal" in="SourceGraphic" in2="effect1_dropShadow_18_1391" result="shape"/>
</filter>
<filter id="filter2_d_18_1391" x="273.91" y="135.681" width="78.16" height="91.6777" filterUnits="userSpaceOnUse" color-interpolation-filters="sRGB">
<feFlood flood-opacity="0" result="BackgroundImageFix"/>
<feColorMatrix in="SourceAlpha" type="matrix" values="0 0 0 0 0 0 0 0 0 0 0 0 0 0 0 0 0 0 127 0" result="hardAlpha"/>
<feOffset dy="4"/>
<feComposite in2="hardAlpha" operator="out"/>
<feColorMatrix type="matrix" values="0 0 0 0 0.886275 0 0 0 0 0.419608 0 0 0 0 0.117647 0 0 0 1 0"/>
<feBlend mode="normal" in2="BackgroundImageFix" result="effect1_dropShadow_18_1391"/>
<feBlend mode="normal" in="SourceGraphic" in2="effect1_dropShadow_18_1391" result="shape"/>
</filter>
<filter id="filter3_d_18_1391" x="45.917" y="108.379" width="270" height="103.626" filterUnits="userSpaceOnUse" color-interpolation-filters="sRGB">
<feFlood flood-opacity="0" result="BackgroundImageFix"/>
<feColorMatrix in="SourceAlpha" type="matrix" values="0 0 0 0 0 0 0 0 0 0 0 0 0 0 0 0 0 0 127 0" result="hardAlpha"/>
<feOffset dy="4"/>
<feComposite in2="hardAlpha" operator="out"/>
<feColorMatrix type="matrix" values="0 0 0 0 0.886275 0 0 0 0 0.419608 0 0 0 0 0.117647 0 0 0 1 0"/>
<feBlend mode="normal" in2="BackgroundImageFix" result="effect1_dropShadow_18_1391"/>
<feBlend mode="normal" in="SourceGraphic" in2="effect1_dropShadow_18_1391" result="shape"/>
</filter>
<filter id="filter4_d_18_1391" x="139.635" y="42.9766" width="81.841" height="82.1538" filterUnits="userSpaceOnUse" color-interpolation-filters="sRGB">
<feFlood flood-opacity="0" result="BackgroundImageFix"/>
<feColorMatrix in="SourceAlpha" type="matrix" values="0 0 0 0 0 0 0 0 0 0 0 0 0 0 0 0 0 0 127 0" result="hardAlpha"/>
<feOffset dy="4"/>
<feComposite in2="hardAlpha" operator="out"/>
<feColorMatrix type="matrix" values="0 0 0 0 1 0 0 0 0 0.720277 0 0 0 0 0.000989556 0 0 0 1 0"/>
<feBlend mode="normal" in2="BackgroundImageFix" result="effect1_dropShadow_18_1391"/>
<feBlend mode="normal" in="SourceGraphic" in2="effect1_dropShadow_18_1391" result="shape"/>
</filter>
<filter id="filter5_d_18_1391" x="226.032" y="73.4551" width="50.9542" height="55.2134" filterUnits="userSpaceOnUse" color-interpolation-filters="sRGB">
<feFlood flood-opacity="0" result="BackgroundImageFix"/>
<feColorMatrix in="SourceAlpha" type="matrix" values="0 0 0 0 0 0 0 0 0 0 0 0 0 0 0 0 0 0 127 0" result="hardAlpha"/>
<feOffset dy="4"/>
<feComposite in2="hardAlpha" operator="out"/>
<feColorMatrix type="matrix" values="0 0 0 0 1 0 0 0 0 0.720277 0 0 0 0 0.000989556 0 0 0 1 0"/>
<feBlend mode="normal" in2="BackgroundImageFix" result="effect1_dropShadow_18_1391"/>
<feBlend mode="normal" in="SourceGraphic" in2="effect1_dropShadow_18_1391" result="shape"/>
</filter>
<filter id="filter6_d_18_1391" x="84.7001" y="73.4551" width="50.9542" height="55.2134" filterUnits="userSpaceOnUse" color-interpolation-filters="sRGB">
<feFlood flood-opacity="0" result="BackgroundImageFix"/>
<feColorMatrix in="SourceAlpha" type="matrix" values="0 0 0 0 0 0 0 0 0 0 0 0 0 0 0 0 0 0 127 0" result="hardAlpha"/>
<feOffset dy="4"/>
<feComposite in2="hardAlpha" operator="out"/>
<feColorMatrix type="matrix" values="0 0 0 0 1 0 0 0 0 0.720277 0 0 0 0 0.000989556 0 0 0 1 0"/>
<feBlend mode="normal" in2="BackgroundImageFix" result="effect1_dropShadow_18_1391"/>
<feBlend mode="normal" in="SourceGraphic" in2="effect1_dropShadow_18_1391" result="shape"/>
</filter>
<linearGradient id="paint0_linear_18_1391" x1="135.232" y1="5.06302" x2="152.658" y2="149.142" gradientUnits="userSpaceOnUse">
<stop stop-color="#FFEDAD" stop-opacity="0"/>
<stop offset="1" stop-color="#FFEFB8" stop-opacity="0.5"/>
</linearGradient>
<linearGradient id="paint1_linear_18_1391" x1="227.073" y1="3.78588" x2="211.279" y2="148.053" gradientUnits="userSpaceOnUse">
<stop stop-color="#FFEDAD" stop-opacity="0"/>
<stop offset="1" stop-color="#FFEFB8" stop-opacity="0.5"/>
</linearGradient>
<linearGradient id="paint2_linear_18_1391" x1="63.5102" y1="40.4621" x2="99.715" y2="159.653" gradientUnits="userSpaceOnUse">
<stop stop-color="#FFEDAD" stop-opacity="0"/>
<stop offset="1" stop-color="#FFEFB8" stop-opacity="0.5"/>
</linearGradient>
<linearGradient id="paint3_linear_18_1391" x1="299.19" y1="38.3707" x2="264.337" y2="157.964" gradientUnits="userSpaceOnUse">
<stop stop-color="#FFEDAD" stop-opacity="0"/>
<stop offset="1" stop-color="#FFEFB8" stop-opacity="0.5"/>
</linearGradient>
<linearGradient id="paint4_linear_18_1391" x1="19.1333" y1="96.2773" x2="60.1391" y2="175.242" gradientUnits="userSpaceOnUse">
<stop stop-color="#FFEDAD" stop-opacity="0"/>
<stop offset="1" stop-color="#FFEFB8" stop-opacity="0.5"/>
</linearGradient>
<linearGradient id="paint5_linear_18_1391" x1="344.196" y1="93.6799" x2="304.087" y2="173.104" gradientUnits="userSpaceOnUse">
<stop stop-color="#FFEDAD" stop-opacity="0"/>
<stop offset="1" stop-color="#FFEFB8" stop-opacity="0.5"/>
</linearGradient>
<linearGradient id="paint6_linear_18_1391" x1="28.417" y1="94.8791" x2="44.917" y2="180.379" gradientUnits="userSpaceOnUse">
<stop stop-color="#FFCF25"/>
<stop offset="1" stop-color="#FD8C43"/>
</linearGradient>
<linearGradient id="paint7_linear_18_1391" x1="334.252" y1="94.8791" x2="317.752" y2="180.379" gradientUnits="userSpaceOnUse">
<stop stop-color="#FFCF25"/>
<stop offset="1" stop-color="#FD8C43"/>
</linearGradient>
<linearGradient id="paint8_linear_18_1391" x1="180.917" y1="55.3789" x2="180.917" y2="162.379" gradientUnits="userSpaceOnUse">
<stop stop-color="#FFCF25"/>
<stop offset="1" stop-color="#FD8C43"/>
</linearGradient>
<linearGradient id="paint9_linear_18_1391" x1="180.556" y1="46.8277" x2="180.556" y2="108.623" gradientUnits="userSpaceOnUse">
<stop stop-color="#FFF2C2"/>
<stop offset="1" stop-color="#FFCF25"/>
</linearGradient>
<linearGradient id="paint10_linear_18_1391" x1="254.568" y1="75.4037" x2="247.669" y2="114.526" gradientUnits="userSpaceOnUse">
<stop stop-color="#FFF2C2"/>
<stop offset="1" stop-color="#FFCF25"/>
</linearGradient>
<linearGradient id="paint11_linear_18_1391" x1="107.119" y1="75.4037" x2="114.017" y2="114.526" gradientUnits="userSpaceOnUse">
<stop stop-color="#FFF2C2"/>
<stop offset="1" stop-color="#FFCF25"/>
</linearGradient>
</defs>
</svg>
