<svg width="166" height="142" viewBox="0 0 166 142" fill="none" xmlns="http://www.w3.org/2000/svg">
<path d="M49.5994 23.8811C53.8975 26.9488 36.817 34.394 40.1164 44.0249C43.4148 53.6569 58.724 37.4989 62.8259 41.9168C66.9279 46.3347 46.4322 55.9451 55.4304 67.1585C64.4287 78.3719 82.9759 72.0409 82.9759 72.0409L83.3915 76.9611C83.3915 76.9611 42.0318 92.4604 25.4901 63.3661C8.94728 34.2708 18.9844 13.3174 26.3882 12.6921C33.792 12.0667 29.0323 24.3792 33.4334 27.4382C37.8346 30.4973 45.3013 20.8142 49.5994 23.8811Z" fill="#FED080"/>
<path d="M129.208 17.1569C125.485 20.9022 143.573 25.3769 141.935 35.4248C140.299 45.4736 122.497 32.1123 119.194 37.1557C115.891 42.199 137.708 48.2354 130.718 60.7993C123.729 73.3631 104.382 70.2328 104.382 70.2328L104.798 75.153C104.798 75.153 148.171 83.4954 159.599 52.0386C171.027 20.5808 157.617 1.60786 150.214 2.23322C142.81 2.85857 149.567 14.1982 145.742 17.9522C141.916 21.7061 132.931 13.4126 129.208 17.1569Z" fill="#FED080"/>
<ellipse cx="24.4221" cy="14.4322" rx="24.4221" ry="14.4322" transform="matrix(0.895932 -0.444192 0.452262 0.891885 7.9126 91.6309)" fill="#BF8969"/>
<g style="mix-blend-mode:multiply">
<ellipse cx="16.8764" cy="9.97306" rx="16.8764" ry="9.97306" transform="matrix(0.895932 -0.444192 0.452262 0.891885 16.6898 92.2559)" fill="#BF8969"/>
</g>
<ellipse cx="24.4221" cy="14.4322" rx="24.4221" ry="14.4322" transform="matrix(-0.957744 -0.287623 -0.296257 0.955108 181.721 76.9502)" fill="#BF8969"/>
<g style="mix-blend-mode:multiply">
<ellipse cx="16.8764" cy="9.97306" rx="16.8764" ry="9.97306" transform="matrix(-0.957744 -0.287623 -0.296257 0.955108 173.172 79.0386)" fill="#BF8969"/>
</g>
<path d="M87.733 35.8892C87.4427 32.9559 88.7922 30.3925 90.7471 30.1637C92.702 29.9349 94.5221 32.1274 94.8123 35.0607L95.2242 39.2234L95.8393 35.2628C96.2767 32.4458 98.1937 30.8504 100.121 31.6995C102.048 32.5486 103.256 35.5206 102.819 38.3376L100.707 51.9395C100.269 54.7566 98.3521 56.3519 96.4248 55.5029C95.8077 55.231 95.2644 54.7415 94.8252 54.1092C94.3638 54.5778 93.8114 54.8779 93.1997 54.9495C92.6985 55.0081 92.2061 54.9076 91.7461 54.6763C91.5456 56.204 90.8852 57.5366 89.8678 58.2083C88.1101 59.3686 85.9527 58.1174 85.0489 55.4137L80.6852 42.3587C79.7814 39.655 80.4736 36.5225 82.2312 35.3622C83.9888 34.2019 86.1463 35.4531 87.05 38.1568L88.3389 42.0126L87.733 35.8892Z" fill="#BF8969"/>
<path d="M39.472 99.5617C40.063 70.1867 62.7439 46.0022 92.0206 43.5294C121.297 41.0565 147.713 61.0941 153.223 89.9538L160.118 126.068C165.46 154.051 145.396 180.502 117.009 182.899L90.7626 185.116C62.3756 187.514 38.1594 164.803 38.7324 136.321L39.472 99.5617Z" fill="#BF8969"/>
<ellipse cx="100.892" cy="148.553" rx="65.1187" ry="34.2377" transform="rotate(-4.82799 100.892 148.553)" fill="#FED080"/>
<ellipse cx="58.5873" cy="118.306" rx="5.37061" ry="3.22237" transform="rotate(-4.82799 58.5873 118.306)" fill="#FFCEB9"/>
<ellipse cx="137.523" cy="111.639" rx="5.37061" ry="3.22237" transform="rotate(-4.82799 137.523 111.639)" fill="#FFCEB9"/>
<circle cx="12.0839" cy="12.0839" r="12.0839" transform="matrix(-0.996452 0.0841646 0.0841646 0.996452 76.2372 87.98)" fill="#4B2B1D"/>
<circle cx="4.02796" cy="4.02796" r="4.02796" transform="matrix(-0.996452 0.0841646 0.0841646 0.996452 72.5624 92.3325)" fill="white"/>
<circle cx="2.01398" cy="2.01398" r="2.01398" transform="matrix(-0.996452 0.0841646 0.0841646 0.996452 65.326 102.376)" fill="white"/>
<circle cx="128.094" cy="95.7266" r="12.0839" transform="rotate(-4.82799 128.094 95.7266)" fill="#4B2B1D"/>
<circle cx="123.742" cy="92.0521" r="4.02796" transform="rotate(-4.82799 123.742 92.0521)" fill="white"/>
<circle cx="130.384" cy="98.9018" r="2.01398" transform="rotate(-4.82799 130.384 98.9018)" fill="white"/>
<path d="M89.8001 134.723L98.0279 130.605L107.782 133.204L108.086 136.801C108.505 141.766 104.82 146.132 99.8542 146.551C94.8887 146.97 90.5233 143.285 90.1038 138.319L89.8001 134.723Z" fill="#FEB1AA"/>
<path d="M109.111 115.946C109.393 119.289 104.358 122.443 97.8642 122.991C91.3708 123.54 85.878 121.275 85.5957 117.933C85.3134 114.59 90.2025 109.707 96.6959 109.159C103.189 108.61 108.828 112.604 109.111 115.946Z" fill="#4B2B1D"/>
<circle cx="102.263" cy="113.216" r="1.73519" transform="rotate(-4.82799 102.263 113.216)" fill="white"/>
<path d="M97.1012 114.589L98.1347 126.826C98.4723 130.822 101.985 133.787 105.981 133.45L106.992 133.365C110.43 133.074 112.981 130.052 112.691 126.614V126.614" stroke="#4B2B1D" stroke-width="2.27455" stroke-linecap="round" stroke-linejoin="round"/>
<path d="M97.1011 114.589L98.1346 126.826C98.4721 130.821 95.5063 134.334 91.5104 134.672L90.4995 134.757C87.0618 135.048 84.0396 132.496 83.7493 129.059V129.059" stroke="#4B2B1D" stroke-width="2.27455" stroke-linecap="round" stroke-linejoin="round"/>
<path d="M36.6147 141.574C36.6694 140.801 37.5461 140.38 38.1924 140.807C75.1099 165.194 130.916 159.253 160.832 130.423C161.379 129.896 162.296 130.129 162.512 130.856L171.413 160.722C172.441 164.169 171.048 167.898 167.931 169.694C127.257 193.132 80.3728 197.067 39.1553 180.497C36.0411 179.245 34.1697 176.083 34.4069 172.735L36.6147 141.574Z" fill="#E64C3C"/>
</svg>
