<svg width="163" height="160" viewBox="0 0 163 160" fill="none" xmlns="http://www.w3.org/2000/svg">
<path d="M113.801 18.918C93.3609 42.5547 89.4118 56.6715 85.0717 90.4097" stroke="#5EA985" stroke-width="2.23992" stroke-linecap="round"/>
<path d="M115.881 9.84799C114.395 11.3323 113.319 13.3117 112.55 15.2542C111.22 18.6116 114.371 21.5161 117.641 19.9859C119.484 19.1238 121.365 17.9907 122.818 16.5393C124.223 15.1361 125.331 13.3326 126.184 11.5503C127.768 8.23948 124.778 5.06316 121.378 6.44516C119.389 7.25364 117.37 8.35979 115.881 9.84799Z" fill="#5EA985"/>
<path d="M110.699 26.5247C109.218 26.6968 107.718 27.2069 106.402 27.7911C104.494 28.6375 104.776 31.065 106.827 31.4513C108.242 31.7179 109.82 31.8702 111.3 31.6981C112.781 31.526 114.281 31.0159 115.597 30.4318C117.505 29.5853 117.222 27.1579 115.172 26.7715C113.756 26.5049 112.179 26.3526 110.699 26.5247Z" fill="#5EA985"/>
<path d="M101.642 24.2921C101.845 25.7687 102.386 27.2582 102.997 28.5622C103.882 30.4518 106.303 30.1197 106.647 28.0615C106.885 26.641 107.005 25.0609 106.802 23.5843C106.6 22.1077 106.059 20.6182 105.448 19.3141C104.562 17.4246 102.141 17.7567 101.797 19.8149C101.559 21.2353 101.44 22.8155 101.642 24.2921Z" fill="#5EA985"/>
<path d="M103.126 38.201C101.645 38.3731 100.145 38.8832 98.8288 39.4673C96.9214 40.3138 97.2036 42.7412 99.2543 43.1275C100.67 43.3942 102.247 43.5465 103.727 43.3744C105.208 43.2023 106.708 42.6922 108.024 42.108C109.932 41.2616 109.65 38.8341 107.599 38.4478C106.184 38.1812 104.606 38.0288 103.126 38.201Z" fill="#5EA985"/>
<path d="M92.9523 37.5665C93.5039 38.9511 94.387 40.2669 95.2937 41.3858C96.6075 43.0071 98.8778 42.1027 98.717 40.0221C98.6059 38.5862 98.3424 37.0236 97.7908 35.639C97.2392 34.2544 96.3561 32.9386 95.4494 31.8197C94.1356 30.1985 91.8653 31.1029 92.0262 33.1834C92.1372 34.6193 92.4007 36.1819 92.9523 37.5665Z" fill="#5EA985"/>
<path d="M96.4743 51.0196C95.0092 51.2933 93.5476 51.9056 92.2747 52.5791C90.4301 53.555 90.879 55.9573 92.9514 56.2013C94.3817 56.3698 95.9658 56.413 97.4309 56.1393C98.896 55.8655 100.358 55.2532 101.631 54.5797C103.475 53.6038 103.026 51.2016 100.954 50.9575C99.5235 50.7891 97.9394 50.7459 96.4743 51.0196Z" fill="#5EA985"/>
<path d="M87.3473 51.1358C88.092 52.4269 89.1549 53.6022 90.2129 54.5793C91.7459 55.9951 93.8628 54.774 93.4048 52.7381C93.0887 51.3331 92.6035 49.8245 91.8588 48.5335C91.1141 47.2424 90.0512 46.0671 88.9931 45.09C87.4601 43.6742 85.3432 44.8953 85.8012 46.9312C86.1173 48.3363 86.6025 49.8448 87.3473 51.1358Z" fill="#5EA985"/>
<path d="M92.9513 64.6646C91.5144 65.0605 90.1094 65.7934 88.8976 66.5715C87.1416 67.6989 87.7907 70.055 89.8763 70.124C91.3157 70.1717 92.8978 70.0817 94.3347 69.6858C95.7716 69.2899 97.1765 68.5569 98.3884 67.7789C100.144 66.6514 99.4953 64.2954 97.4097 64.2263C95.9703 64.1787 94.3882 64.2687 92.9513 64.6646Z" fill="#5EA985"/>
<path d="M82.6579 66.288C83.5501 67.482 84.7444 68.5234 85.9106 69.3685C87.6002 70.5931 89.5579 69.1303 88.8624 67.1629C88.3824 65.8051 87.7223 64.3645 86.8301 63.1705C85.938 61.9765 84.7436 60.9351 83.5775 60.09C81.8878 58.8654 79.9302 60.3282 80.6256 62.2956C81.1056 63.6535 81.7658 65.094 82.6579 66.288Z" fill="#5EA985"/>
<path d="M125.203 31.9253C106.008 56.5833 102.791 70.8847 100.194 104.802" stroke="#5EA985" stroke-width="2.23992" stroke-linecap="round"/>
<path d="M126.813 22.7601C125.405 24.3191 124.434 26.3512 123.765 28.3307C122.61 31.7521 125.906 34.4905 129.094 32.7939C130.889 31.8381 132.71 30.6097 134.086 29.0853C135.417 27.6116 136.43 25.7535 137.19 23.9296C138.602 20.5416 135.453 17.5235 132.128 19.0787C130.183 19.9886 128.224 21.1972 126.813 22.7601Z" fill="#5EA985"/>
<path d="M122.497 39.6814C121.027 39.9295 119.555 40.5162 118.271 41.1674C116.409 42.111 116.816 44.5207 118.884 44.8009C120.311 44.9942 121.894 45.0651 123.364 44.817C124.833 44.5689 126.305 43.9822 127.59 43.331C129.451 42.3875 129.044 39.9778 126.977 39.6976C125.549 39.5042 123.966 39.4333 122.497 39.6814Z" fill="#5EA985"/>
<path d="M113.337 37.9189C113.615 39.3831 114.232 40.8427 114.91 42.1136C115.891 43.955 118.292 43.4987 118.53 41.4255C118.694 39.9947 118.732 38.4105 118.454 36.9463C118.175 35.482 117.559 34.0224 116.881 32.7515C115.899 30.9101 113.499 31.3664 113.261 33.4396C113.097 34.8704 113.059 36.4546 113.337 37.9189Z" fill="#5EA985"/>
<path d="M115.535 51.7322C114.065 51.9803 112.593 52.567 111.309 53.2182C109.447 54.1617 109.854 56.5714 111.922 56.8516C113.349 57.045 114.932 57.1159 116.402 56.8678C117.872 56.6197 119.344 56.033 120.628 55.3818C122.489 54.4383 122.083 52.0286 120.015 51.7484C118.588 51.555 117.005 51.4841 115.535 51.7322Z" fill="#5EA985"/>
<path d="M105.342 51.6233C105.964 52.9776 106.914 54.2462 107.877 55.3169C109.273 56.8684 111.493 55.8482 111.226 53.7787C111.041 52.3505 110.697 50.8035 110.075 49.4492C109.453 48.0948 108.503 46.8262 107.54 45.7555C106.144 44.204 103.924 45.2242 104.192 47.2937C104.376 48.7219 104.72 50.2689 105.342 51.6233Z" fill="#5EA985"/>
<path d="M109.552 64.8761C108.103 65.225 106.675 65.9117 105.439 66.6499C103.647 67.7195 104.219 70.0954 106.301 70.2324C107.738 70.327 109.322 70.2886 110.771 69.9398C112.22 69.5909 113.648 68.9042 114.885 68.166C116.677 67.0964 116.105 64.7205 114.023 64.5835C112.586 64.4889 111.001 64.5273 109.552 64.8761Z" fill="#5EA985"/>
<path d="M100.443 65.4624C101.253 66.7134 102.375 67.8324 103.482 68.7537C105.086 70.0887 107.137 68.7602 106.575 66.7506C106.187 65.3637 105.625 63.8822 104.815 62.6312C104.004 61.3802 102.882 60.2612 101.775 59.3399C100.172 58.0049 98.1204 59.3334 98.6826 61.343C99.0706 62.7299 99.6329 64.2114 100.443 65.4624Z" fill="#5EA985"/>
<path d="M106.736 78.6844C105.322 79.1538 103.956 79.9581 102.786 80.7976C101.091 82.014 101.86 84.3334 103.947 84.295C105.386 84.2685 106.962 84.0971 108.376 83.6277C109.791 83.1584 111.156 82.3541 112.327 81.5146C114.022 80.2982 113.253 77.9787 111.166 78.0172C109.726 78.0437 108.151 78.2151 106.736 78.6844Z" fill="#5EA985"/>
<path d="M96.5405 80.8363C97.4929 81.9828 98.7394 82.9613 99.9474 83.7453C101.698 84.8812 103.578 83.3196 102.782 81.3905C102.233 80.0592 101.499 78.6545 100.547 77.5081C99.5942 76.3617 98.3477 75.3832 97.1397 74.5992C95.3892 73.4632 93.5094 75.0249 94.3053 76.9539C94.8546 78.2852 95.588 79.6899 96.5405 80.8363Z" fill="#5EA985"/>
<path d="M20.1003 42.358C11.8383 49.1619 30.1981 96.5193 30.1981 96.5193L68.2947 66.2257C68.2947 66.2257 27.9032 35.932 20.1003 42.358Z" fill="#C4C4C4"/>
<path d="M20.1003 42.358C11.8383 49.1619 30.1981 96.5193 30.1981 96.5193L68.2947 66.2257C68.2947 66.2257 27.9032 35.932 20.1003 42.358Z" fill="#EF8F35"/>
<path fill-rule="evenodd" clip-rule="evenodd" d="M23.4993 76.9413C19.2754 63.0481 15.4245 46.2087 20.1003 42.3581C24.293 38.9052 37.8951 46.0544 49.584 53.4088C39.0701 49.1282 28.5155 46.0885 24.8097 49.1403C20.6748 52.5455 21.4678 64.8026 23.4993 76.9413Z" fill="#C4C4C4"/>
<path fill-rule="evenodd" clip-rule="evenodd" d="M23.4993 76.9413C19.2754 63.0481 15.4245 46.2087 20.1003 42.3581C24.293 38.9052 37.8951 46.0544 49.584 53.4088C39.0701 49.1282 28.5155 46.0885 24.8097 49.1403C20.6748 52.5455 21.4678 64.8026 23.4993 76.9413Z" fill="#542016"/>
<path d="M136.825 42.358C145.087 49.1619 126.727 96.5193 126.727 96.5193L88.6304 66.2257C88.6304 66.2257 129.022 35.932 136.825 42.358Z" fill="#C4C4C4"/>
<path d="M136.825 42.358C145.087 49.1619 126.727 96.5193 126.727 96.5193L88.6304 66.2257C88.6304 66.2257 129.022 35.932 136.825 42.358Z" fill="#EF8F35"/>
<path fill-rule="evenodd" clip-rule="evenodd" d="M133.425 76.9429C137.649 63.0495 141.501 46.2089 136.825 42.3581C132.632 38.9053 119.03 46.0542 107.342 53.4085C117.855 49.1281 128.41 46.0885 132.115 49.1403C136.25 52.5457 135.457 64.8037 133.425 76.9429Z" fill="#C4C4C4"/>
<path fill-rule="evenodd" clip-rule="evenodd" d="M133.425 76.9429C137.649 63.0495 141.501 46.2089 136.825 42.3581C132.632 38.9053 119.03 46.0542 107.342 53.4085C117.855 49.1281 128.41 46.0885 132.115 49.1403C136.25 52.5457 135.457 64.8037 133.425 76.9429Z" fill="#542016"/>
<path d="M89.2481 36.8798C91.678 37.9564 93.0118 40.9567 92.2271 43.581L88.3428 56.5721C87.5941 59.0762 85.1872 60.3333 82.8572 59.508C82.2998 60.4424 81.4854 61.2113 80.4853 61.6544C78.0554 62.731 75.4495 61.4763 74.6648 58.852L70.7805 45.8609C69.9958 43.2365 71.3296 40.2363 73.7595 39.1597C76.1894 38.083 78.7954 39.3377 79.5801 41.9621L81.163 47.2562L83.4275 39.6822C84.2122 37.0579 86.8182 35.8032 89.2481 36.8798Z" fill="#EF8F35"/>
<path d="M20.7037 124.39C20.6439 124.24 20.5288 124.119 20.3831 124.053C10.0705 119.415 1.52367 109.55 0.030263 105.253C-0.0952914 104.891 0.186841 104.548 0.562556 104.548C6.83094 104.545 8.33319 104.46 13.3115 102.121C13.7 101.939 13.7822 101.411 13.4677 101.115L8.61875 96.5548C8.20016 96.1612 8.50254 95.3981 9.07043 95.3577C11.358 95.1948 14.1861 94.4955 17.2581 93.466C17.4671 93.3959 17.6212 93.213 17.6619 92.9925C22.4426 67.0614 44.7553 47.4429 71.5589 47.4429H87.2286C113.454 47.4429 135.38 66.2242 140.792 91.3235C140.835 91.5241 140.973 91.6915 141.161 91.7668C145.963 93.695 150.544 95.1161 153.936 95.3577C154.504 95.3981 154.806 96.1612 154.388 96.5548L149.539 101.115C149.224 101.411 149.306 101.939 149.695 102.121C154.673 104.46 156.175 104.545 162.444 104.548C162.819 104.548 163.103 104.887 162.977 105.249C161.259 110.204 150.149 122.574 137.768 125.78C137.586 125.828 137.435 125.957 137.358 126.133C128.818 145.709 109.586 159.358 87.2286 159.358H71.5589C48.5445 159.358 28.841 144.895 20.7037 124.39Z" fill="#EF8F35"/>
<g filter="url(#filter0_f_40_54)">
<ellipse cx="35.2777" cy="111.186" rx="10.9483" ry="6.56895" fill="#FF6E41"/>
<ellipse cx="122.863" cy="111.186" rx="10.9483" ry="6.56895" fill="#FF6E41"/>
</g>
<path fill-rule="evenodd" clip-rule="evenodd" d="M137.631 125.834C137.511 125.899 137.415 126.003 137.358 126.132C128.818 145.709 109.586 159.358 87.2286 159.358H71.5589C48.5528 159.358 28.8552 144.905 20.7125 124.412C32.6664 110.901 56.317 102.184 79.0709 102.184C102.613 102.184 126.468 111.516 137.631 125.834Z" fill="#FFCEB9"/>
<ellipse cx="7.78543" cy="9.73178" rx="7.78543" ry="9.73178" transform="matrix(-1 0 0 1 50.8484 86.3701)" fill="#542016"/>
<ellipse cx="2.91953" cy="3.40612" rx="2.91953" ry="3.40612" transform="matrix(-1 0 0 1 47.9288 89.2896)" fill="white"/>
<circle cx="1.45977" cy="1.45977" r="1.45977" transform="matrix(-1 0 0 1 42.0898 96.1021)" fill="white"/>
<ellipse cx="7.78543" cy="9.73178" rx="7.78543" ry="9.73178" transform="matrix(-1 0 0 1 126.27 86.3701)" fill="#542016"/>
<ellipse cx="2.91953" cy="3.40612" rx="2.91953" ry="3.40612" transform="matrix(-1 0 0 1 123.35 89.2896)" fill="white"/>
<circle cx="1.45977" cy="1.45977" r="1.45977" transform="matrix(-1 0 0 1 117.511 96.1021)" fill="white"/>
<rect x="79.3715" y="105.155" width="2.72106" height="11.755" rx="1.36053" fill="#542016"/>
<ellipse cx="80.6774" cy="103.4" rx="9.2516" ry="6.08236" fill="#542016"/>
<circle cx="75.9428" cy="100.747" r="1.46937" fill="white"/>
<path d="M70.5554 113.718C75.4533 118.126 86.3376 118.126 91.2355 113.718" stroke="#542016" stroke-width="2.72106" stroke-linecap="round"/>
<path d="M112.952 52.8831C113.094 52.7637 113.231 52.6365 113.363 52.5017C115.625 50.1961 115.602 46.5061 113.312 44.2597C111.022 42.0133 107.332 42.0613 105.07 44.3669C104.851 44.5907 104.653 44.8276 104.476 45.0749C103.915 42.884 102.142 41.1146 99.818 40.7094C96.6749 40.1612 93.7149 42.317 93.2069 45.5244C92.936 47.2343 93.4167 48.8979 94.4008 50.1617C94.1617 50.1752 93.9209 50.2032 93.6795 50.2462C90.4825 50.8159 88.3841 53.8168 88.9927 56.9488C89.6013 60.0809 92.6864 62.158 95.8834 61.5883C96.056 61.5576 96.2254 61.5197 96.3913 61.4752C96.3499 61.6419 96.3153 61.8119 96.2879 61.9851C95.7798 65.1925 97.916 68.237 101.059 68.7852C104.202 69.3334 107.162 67.1776 107.67 63.9702C107.716 63.6853 107.74 63.4018 107.744 63.1212C108.959 63.8739 110.452 64.2003 111.97 63.9297C115.167 63.36 117.266 60.3591 116.657 57.2271C116.259 55.1809 114.805 53.5849 112.952 52.8831Z" fill="#F6D384"/>
<circle cx="103.614" cy="54.6147" r="4.38159" transform="rotate(69.1033 103.614 54.6147)" fill="white" fill-opacity="0.6"/>
<defs>
<filter id="filter0_f_40_54" x="17.0306" y="97.3183" width="124.08" height="27.7354" filterUnits="userSpaceOnUse" color-interpolation-filters="sRGB">
<feFlood flood-opacity="0" result="BackgroundImageFix"/>
<feBlend mode="normal" in="SourceGraphic" in2="BackgroundImageFix" result="shape"/>
<feGaussianBlur stdDeviation="3.64942" result="effect1_foregroundBlur_40_54"/>
</filter>
</defs>
</svg>
