<svg width="103" height="147" viewBox="0 0 103 147" fill="none" xmlns="http://www.w3.org/2000/svg">
<path fill-rule="evenodd" clip-rule="evenodd" d="M3.54727 64.7006C4.56173 61.9134 7.64359 60.4763 10.4308 61.4907L21.5335 65.5318C23.9215 66.4009 25.3184 68.7877 25.0315 71.2066C25.3201 71.6034 25.5586 72.0468 25.7348 72.5309C26.7493 75.3181 25.3122 78.3999 22.525 79.4144L11.4223 83.4554C8.6351 84.4699 5.55325 83.0328 4.53879 80.2456C3.52433 77.4584 4.96142 74.3765 7.74862 73.3621L9.69537 72.6535L6.75711 71.5841C3.9699 70.5696 2.53281 67.4878 3.54727 64.7006Z" fill="#282828"/>
<ellipse cx="66.0573" cy="73.0394" rx="52.6315" ry="54.2426" transform="rotate(-90 66.0573 73.0394)" fill="#282828"/>
<path fill-rule="evenodd" clip-rule="evenodd" d="M91.1171 119.73C91.0927 119.733 91.0682 119.736 91.0437 119.74C67.2736 122.916 46.2373 112.272 44.0579 95.9639C42.945 87.6364 46.9645 79.4425 54.33 72.9942C46.9644 66.546 42.9449 58.3521 44.0579 50.0245C46.232 33.7561 67.1723 23.1234 90.872 26.2261C108.349 34.9655 120.3 52.6483 120.3 73.0396C120.3 93.3354 108.46 110.948 91.1171 119.73Z" fill="white"/>
<circle cx="87.5397" cy="104.725" r="8.05584" transform="rotate(-90 87.5397 104.725)" fill="#FFC6AD"/>
<circle cx="87.5395" cy="41.3529" r="8.05584" transform="rotate(-90 87.5395 41.3529)" fill="#FFC6AD"/>
<g filter="url(#filter0_f_18_484)">
<path d="M80.2475 125.357C79.4309 125.227 79.059 124.26 79.5618 123.603C101.389 95.1052 100.42 49.4368 79.5354 22.9587C79.0337 22.3227 79.3653 21.3712 80.1577 21.2034L102.798 16.407C106.61 15.5995 110.516 17.449 112.105 21.0062C127.354 55.1251 127.328 92.6533 112.027 124.569C110.456 127.847 106.865 129.586 103.275 129.016L80.2475 125.357Z" fill="#8ED2C9"/>
</g>
<path d="M80.2475 125.357C79.4309 125.227 79.059 124.26 79.5618 123.603C101.389 95.1052 100.42 49.4368 79.5354 22.9587C79.0337 22.3227 79.3653 21.3712 80.1577 21.2034L102.798 16.407C106.61 15.5995 110.516 17.449 112.105 21.0062C127.354 55.1251 127.328 92.6533 112.027 124.569C110.456 127.847 106.865 129.586 103.275 129.016L80.2475 125.357Z" fill="#8ED2C9"/>
<circle cx="6.98173" cy="6.98173" r="6.98173" transform="matrix(0 1 1 0 66.5945 90.2246)" fill="#282828"/>
<circle cx="1.61117" cy="1.61117" r="1.61117" transform="matrix(0 1 1 0 69.8169 92.373)" fill="white"/>
<circle cx="6.98173" cy="6.98173" r="6.98173" transform="matrix(0 1 1 0 66.5947 41.8896)" fill="#282828"/>
<circle cx="1.61117" cy="1.61117" r="1.61117" transform="matrix(0 1 1 0 69.8169 44.0376)" fill="white"/>
<path d="M75.7244 63.3725C73.055 63.3725 70.8909 67.7006 70.8909 73.0395C70.8909 78.3785 73.055 82.7065 75.7244 82.7065C78.3939 82.7065 83.7803 78.3785 83.7803 73.0395C83.7803 67.7006 78.3939 63.3725 75.7244 63.3725Z" fill="#FED402"/>
<circle cx="83.7805" cy="95.5959" r="2.14822" transform="rotate(-90 83.7805 95.5959)" fill="white"/>
<defs>
<filter id="filter0_f_18_484" x="78.2235" y="15.1451" width="46.3733" height="115.052" filterUnits="userSpaceOnUse" color-interpolation-filters="sRGB">
<feFlood flood-opacity="0" result="BackgroundImageFix"/>
<feBlend mode="normal" in="SourceGraphic" in2="BackgroundImageFix" result="shape"/>
<feGaussianBlur stdDeviation="0.537056" result="effect1_foregroundBlur_18_484"/>
</filter>
</defs>
</svg>
