<svg width="373" height="812" viewBox="0 0 373 812" fill="none" xmlns="http://www.w3.org/2000/svg">
<g filter="url(#filter0_d_35_55)">
<path d="M59.2601 206.593C37.4328 202.009 8.52393 183.414 3.1562 179.874C2.60228 179.508 2.27924 178.893 2.27924 178.229V2C2.27924 0.895431 3.17467 0 4.27923 0H380C381.105 0 382 0.895455 382 2.00002V802.075C382 803.179 381.105 804.075 380 804.075H82.3651C65.4489 805.755 49.2642 806.132 35.7884 805.963C33.2663 805.932 33.3718 804.075 35.894 804.075H82.3651C119.65 800.371 160.488 790.336 183.706 765.85C198.437 750.316 185.502 725.937 214.248 720.345C239.086 715.514 184.276 704.36 208.778 698.048C222.909 694.407 244.631 660.553 237.952 633.886C225.644 584.74 187.353 628.88 171.854 598.392C157.504 570.162 132.652 558.347 132.652 527.404C132.652 494.421 153.39 473.171 183.706 460.056C197.382 454.141 235.518 449.935 246.613 435.484C261.124 416.583 238.408 389.956 226.1 379.512C206.416 362.81 211.865 340.088 193.279 322.176C177.948 307.401 155.645 313.549 146.327 294.418C131.776 264.542 196.419 256.502 193.279 223.43C191.454 204.204 188.742 186.858 170.943 179.29C146.327 168.824 103.202 215.821 59.2601 206.593Z" fill="#2BCB9A"/>
</g>
<g filter="url(#filter1_f_35_55)">
<path d="M314 341C314 341 328.588 310.108 320 293.5C306.546 267.483 266.613 313.268 245 293.5C228.217 278.15 228.835 260.244 229 237.5C229.161 215.319 245 183 245 183C245 183 281.283 166.002 278.5 147C275.948 129.571 254.108 133.294 242 120.5C230.87 108.739 221.808 101.947 219 86C216.175 69.9556 230.709 61.7013 229 45.5C225.067 8.2222 148 -6 148 -6" stroke="#FFFEFF" stroke-opacity="0.5" stroke-width="2" stroke-linecap="round" stroke-dasharray="8 8"/>
</g>
<path d="M314 341C314 341 328.588 310.108 320 293.5C306.546 267.483 266.613 313.268 245 293.5C228.217 278.15 228.835 260.244 229 237.5C229.161 215.319 245 183 245 183C245 183 281.283 166.002 278.5 147C275.948 129.571 254.108 133.294 242 120.5C230.87 108.739 221.808 101.947 219 86C216.175 69.9556 230.709 61.7013 229 45.5C225.067 8.2222 148 -6 148 -6" stroke="#FFFEFF" stroke-linecap="round" stroke-dasharray="8 8"/>
<g filter="url(#filter2_f_35_55)">
<path d="M296.926 825.418C296.926 825.418 288.246 793.063 297.299 771.065C306.352 749.067 333.663 729.721 322.91 696.296C314.934 671.503 293.027 684.534 283.118 657.541C273.209 630.549 293.807 605.724 281.452 578.002C270.08 552.482 222.5 548.5 222.5 548.5" stroke="#FFFEFF" stroke-opacity="0.5" stroke-width="2" stroke-linecap="round"/>
</g>
<path d="M296.927 825.418C296.927 825.418 288.246 793.063 297.299 771.065C306.352 749.067 333.663 729.721 322.91 696.296C314.934 671.503 293.027 684.534 283.118 657.541C273.209 630.549 293.807 605.724 281.453 578.002C270.08 552.482 221.5 550 221.5 550" stroke="#FFFEFF" stroke-width="2" stroke-linecap="round"/>
<g filter="url(#filter3_f_35_55)">
<path d="M238.5 529C238.5 529 266.923 525.343 265.432 504.8C263.941 484.257 253.529 464.565 274 442.5C289.184 426.133 296.565 438.881 314.233 421.52C331.901 404.159 294.068 360.517 314.233 343.5C332.796 327.835 322.5 346.5 322.5 346.5" stroke="#FFFEFF" stroke-opacity="0.5" stroke-width="2" stroke-linecap="round"/>
</g>
<path d="M231.5 534C231.5 534 266.923 525.343 265.432 504.8C263.941 484.256 253.529 464.565 274 442.5C289.184 426.133 296.565 438.88 314.233 421.519C331.902 404.158 294.068 360.517 314.233 343.5C332.796 327.835 322.5 346.5 322.5 346.5" stroke="#FFFEFF" stroke-width="2" stroke-linecap="round"/>
<ellipse cx="5.05849" cy="2.98931" rx="5.05849" ry="2.98931" transform="matrix(0.753384 0.657581 0.664356 -0.747417 209.452 525.978)" fill="#FFDE73"/>
<ellipse cx="3.49555" cy="2.06569" rx="3.49555" ry="2.06569" transform="matrix(0.753384 0.657581 0.664356 -0.747417 211.243 526.314)" fill="#FFC2A9"/>
<ellipse cx="5.05849" cy="2.98931" rx="5.05849" ry="2.98931" transform="matrix(-0.944585 0.328267 -0.336781 -0.941583 245.996 533.064)" fill="#FFDE73"/>
<ellipse cx="3.49555" cy="2.06569" rx="3.49555" ry="2.06569" transform="matrix(-0.944585 0.328267 -0.336781 -0.941583 244.209 532.708)" fill="#FFC2A9"/>
<path d="M219.459 519.951L221.044 520.258L219.65 530.839L216.797 530.286L219.459 519.951Z" fill="#FFDE73"/>
<circle cx="220.344" cy="519.629" r="2.74382" transform="rotate(10.976 220.344 519.629)" fill="#FFDE73"/>
<path d="M237.522 523.454L239.107 523.761L237.713 534.342L234.86 533.789L237.522 523.454Z" fill="#FFDE73"/>
<circle cx="238.407" cy="523.132" r="2.74382" transform="rotate(10.976 238.407 523.132)" fill="#FFDE73"/>
<rect x="215.421" y="522.127" width="27.4382" height="33.8943" rx="13.7191" transform="rotate(10.976 215.421 522.127)" fill="#FFDE73"/>
<path fill-rule="evenodd" clip-rule="evenodd" d="M229.337 524.834C232.812 525.627 235.691 527.688 237.578 530.429C236.564 532.295 234.425 533.376 232.229 532.95C229.516 532.424 227.743 529.798 228.269 527.085C228.436 526.226 228.813 525.461 229.337 524.834Z" fill="#C37D2C"/>
<path fill-rule="evenodd" clip-rule="evenodd" d="M215.745 529.411C217.208 527.663 219.086 526.305 221.196 525.462C221.572 526.135 221.721 526.94 221.563 527.757C221.206 529.595 219.428 530.796 217.59 530.439C216.853 530.296 216.218 529.924 215.745 529.411Z" fill="#C37D2C"/>
<path fill-rule="evenodd" clip-rule="evenodd" d="M239.876 540.023C239.84 540.289 239.797 540.554 239.745 540.82L239.038 544.464C239.038 544.464 239.038 544.464 239.038 544.464C237.813 544.227 237.012 543.041 237.25 541.816C237.486 540.598 238.659 539.8 239.876 540.023Z" fill="#C37D2C"/>
<path fill-rule="evenodd" clip-rule="evenodd" d="M211.449 542.73C211.484 542.465 211.528 542.199 211.579 541.933L212.286 538.289C212.286 538.289 212.286 538.289 212.286 538.289C213.511 538.527 214.312 539.712 214.074 540.938C213.838 542.155 212.666 542.953 211.449 542.73Z" fill="#C37D2C"/>
<ellipse cx="216.258" cy="539.848" rx="1.29121" ry="0.774726" transform="rotate(10.976 216.258 539.848)" fill="#ED653B" fill-opacity="0.6"/>
<ellipse cx="234.955" cy="543.474" rx="1.29121" ry="0.774726" transform="rotate(10.976 234.955 543.474)" fill="#ED653B" fill-opacity="0.6"/>
<circle cx="2.90522" cy="2.90522" r="2.90522" transform="matrix(-0.981707 -0.190398 -0.190398 0.981707 222.327 533.989)" fill="#333333"/>
<circle cx="0.968408" cy="0.968408" r="0.968408" transform="matrix(-0.981707 -0.190398 -0.190398 0.981707 221.192 534.756)" fill="white"/>
<circle cx="0.484204" cy="0.484204" r="0.484204" transform="matrix(-0.981707 -0.190398 -0.190398 0.981707 218.86 536.604)" fill="white"/>
<circle cx="233.816" cy="539.177" r="2.90522" transform="rotate(10.976 233.816 539.177)" fill="#333333"/>
<circle cx="233.05" cy="538.041" r="0.968408" transform="rotate(10.976 233.05 538.041)" fill="white"/>
<circle cx="234.138" cy="540.061" r="0.484204" transform="rotate(10.976 234.138 540.061)" fill="white"/>
<ellipse cx="223.783" cy="550.219" rx="14.8489" ry="8.87707" transform="rotate(10.976 223.783 550.219)" fill="#FFCEB9"/>
<ellipse cx="218.059" cy="545.82" rx="0.968408" ry="1.45261" transform="rotate(10.976 218.059 545.82)" fill="#333333"/>
<ellipse cx="231.686" cy="548.463" rx="0.968408" ry="1.45261" transform="rotate(10.976 231.686 548.463)" fill="#333333"/>
<path d="M233.68 556.323C233.172 555.065 231.491 554.15 230.86 553.843C230.727 553.778 230.572 553.841 230.521 553.98C230.28 554.639 229.705 556.464 230.213 557.723C230.721 558.981 232.402 559.896 233.033 560.203C233.166 560.268 233.321 560.205 233.372 560.066C233.613 559.407 234.188 557.582 233.68 556.323Z" fill="#CCE772"/>
<path d="M229.408 557.811C229.985 556.813 229.734 555.22 229.604 554.599C229.574 554.454 229.429 554.371 229.289 554.417C228.686 554.615 227.181 555.194 226.605 556.192C226.028 557.191 226.279 558.784 226.409 559.405C226.439 559.55 226.584 559.633 226.724 559.587C227.327 559.389 228.832 558.81 229.408 557.811Z" fill="#CCE772"/>
<path d="M216.279 549.914C218.24 555.062 228.381 557.029 231.965 552.956" stroke="#333333" stroke-width="1.34002" stroke-linecap="round" stroke-linejoin="round"/>
<path d="M226.838 534.812C228.39 530.863 229.872 529.453 233.757 526.666" stroke="#CCE772" stroke-width="0.668747" stroke-linecap="round"/>
<path d="M225.713 536.001C225.951 535.23 226.908 534.569 226.908 534.569C226.908 534.569 227.246 535.573 227.008 536.344C226.769 537.115 225.902 537.823 225.902 537.823C225.902 537.823 225.475 536.772 225.713 536.001Z" fill="#CCE772"/>
<path d="M227.706 534.119C227.487 533.611 227.585 532.907 227.585 532.907C227.585 532.907 228.168 533.329 228.387 533.837C228.606 534.344 228.508 535.049 228.508 535.049C228.508 535.049 227.925 534.626 227.706 534.119Z" fill="#CCE772"/>
<path d="M226.347 533.075C226.896 532.86 227.635 532.941 227.635 532.941C227.635 532.941 227.156 533.5 226.607 533.715C226.058 533.93 225.319 533.848 225.319 533.848C225.319 533.848 225.798 533.289 226.347 533.075Z" fill="#CCE772"/>
<path d="M228.765 532.352C228.547 531.845 228.645 531.14 228.645 531.14C228.645 531.14 229.228 531.563 229.446 532.07C229.665 532.578 229.567 533.282 229.567 533.282C229.567 533.282 228.984 532.86 228.765 532.352Z" fill="#CCE772"/>
<path d="M227.415 531.021C227.998 530.936 228.688 531.184 228.688 531.184C228.688 531.184 228.085 531.622 227.502 531.707C226.919 531.793 226.229 531.545 226.229 531.545C226.229 531.545 226.833 531.107 227.415 531.021Z" fill="#CCE772"/>
<path d="M230.027 530.859C229.846 530.337 229.995 529.639 229.995 529.639C229.995 529.639 230.545 530.1 230.725 530.621C230.906 531.143 230.757 531.841 230.757 531.841C230.757 531.841 230.208 531.381 230.027 530.859Z" fill="#CCE772"/>
<path d="M228.683 529.413C229.267 529.344 229.949 529.611 229.949 529.611C229.949 529.611 229.333 530.033 228.748 530.102C228.164 530.172 227.482 529.905 227.482 529.905C227.482 529.905 228.098 529.483 228.683 529.413Z" fill="#CCE772"/>
<path d="M231.597 529.32C231.464 528.784 231.674 528.099 231.674 528.099C231.674 528.099 232.179 528.603 232.312 529.139C232.445 529.674 232.235 530.36 232.235 530.36C232.235 530.36 231.73 529.856 231.597 529.32Z" fill="#CCE772"/>
<path d="M230.491 527.892C231.075 527.822 231.757 528.09 231.757 528.09C231.757 528.09 231.141 528.511 230.556 528.581C229.972 528.65 229.29 528.383 229.29 528.383C229.29 528.383 229.906 527.962 230.491 527.892Z" fill="#CCE772"/>
<path d="M236.607 534.958C236.788 534.024 237.709 533.418 238.664 533.603C238.802 533.63 238.934 533.671 239.057 533.726C239.36 532.973 240.178 532.518 241.022 532.682C241.85 532.843 242.432 533.546 242.454 534.338C242.468 534.341 242.481 534.343 242.494 534.346C243.449 534.531 244.077 535.438 243.896 536.371C243.676 537.505 242.558 538.241 241.398 538.016L238.309 537.417C237.149 537.192 236.387 536.091 236.607 534.958Z" fill="white"/>
<path d="M209.323 533.221C209.482 532.404 210.284 531.873 211.114 532.034C211.234 532.057 211.348 532.093 211.455 532.141C211.72 531.482 212.431 531.084 213.166 531.226C213.886 531.366 214.391 531.98 214.41 532.673C214.421 532.675 214.433 532.677 214.444 532.68C215.275 532.841 215.82 533.633 215.661 534.45C215.469 535.442 214.495 536.087 213.487 535.892L210.801 535.371C209.793 535.175 209.131 534.213 209.323 533.221Z" fill="white"/>
<g filter="url(#filter4_d_35_55)">
<path d="M247.856 341.66C247.856 337.811 252.023 335.406 255.356 337.33L264.356 342.526C267.69 344.451 267.69 349.262 264.356 351.187L255.356 356.383C252.023 358.307 247.856 355.902 247.856 352.053L247.856 341.66Z" fill="#FFDF6D"/>
</g>
<circle cx="285.577" cy="339.323" r="9.57717" fill="#D2714C"/>
<circle cx="286.176" cy="339.324" r="7.18288" fill="#FFE1C2"/>
<circle cx="9.57717" cy="9.57717" r="9.57717" transform="matrix(-1 0 0 1 356.807 329.746)" fill="#D2714C"/>
<circle cx="7.18288" cy="7.18288" r="7.18288" transform="matrix(-1 0 0 1 353.815 332.141)" fill="#FFE1C2"/>
<path fill-rule="evenodd" clip-rule="evenodd" d="M320.751 307.181C322.304 307.747 323.105 309.464 322.54 311.017L320.288 317.205C319.804 318.535 318.474 319.314 317.126 319.154C316.905 319.315 316.658 319.448 316.388 319.546C314.835 320.111 313.117 319.311 312.552 317.757L310.3 311.57C309.735 310.017 310.535 308.299 312.089 307.734C313.642 307.169 315.359 307.97 315.925 309.523L316.319 310.607L316.915 308.97C317.48 307.417 319.198 306.616 320.751 307.181Z" fill="#D2714C"/>
<path d="M347.23 342.406C347.23 356.571 333.429 368.054 316.404 368.054C299.379 368.054 285.577 356.571 285.577 342.406C285.577 328.241 299.379 312.387 316.404 312.387C333.429 312.387 347.23 328.241 347.23 342.406Z" fill="#D2714C"/>
<path fill-rule="evenodd" clip-rule="evenodd" d="M290.586 356.426C290.868 350.791 295.506 345.907 301.656 345.907H331.203C337.33 345.907 341.958 350.754 342.27 356.364C336.773 363.401 327.242 368.054 316.404 368.054C305.597 368.054 296.09 363.428 290.586 356.426Z" fill="#FFE1C2"/>
<path fill-rule="evenodd" clip-rule="evenodd" d="M328.36 355.137C335.476 355.137 341.244 348.577 341.244 340.486C341.244 332.394 335.476 325.835 328.36 325.835C323.21 325.835 318.765 329.271 316.703 334.238C314.641 329.271 310.196 325.835 305.046 325.835C297.93 325.835 292.161 332.394 292.161 340.486C292.161 348.577 297.93 355.137 305.046 355.137C310.196 355.137 314.641 351.7 316.703 346.734C318.765 351.7 323.21 355.137 328.36 355.137Z" fill="#FFE1C2"/>
<ellipse cx="4.78859" cy="5.98573" rx="4.78859" ry="5.98573" transform="matrix(-1 0 0 1 308.922 337.527)" fill="#562B30"/>
<ellipse cx="1.79572" cy="2.09501" rx="1.79572" ry="2.09501" transform="matrix(-1 0 0 1 307.126 339.323)" fill="white"/>
<circle cx="0.89786" cy="0.89786" r="0.89786" transform="matrix(-1 0 0 1 303.534 343.514)" fill="white"/>
<ellipse cx="329.872" cy="343.513" rx="4.78859" ry="5.98573" fill="#562B30"/>
<ellipse cx="328.674" cy="341.418" rx="1.79572" ry="2.09501" fill="white"/>
<circle cx="331.368" cy="344.411" r="0.89786" fill="white"/>
<path d="M321.303 349.586C321.303 350.704 319.542 351.425 317.371 351.425C315.199 351.425 313.438 350.704 313.438 349.586C313.438 348.469 315.199 347.104 317.371 347.104C319.542 347.104 321.303 348.469 321.303 349.586Z" fill="#562B30"/>
<circle cx="319.175" cy="348.649" r="0.555146" fill="white"/>
<path d="M317.353 348.244V352.337C317.353 353.673 318.436 354.756 319.773 354.756H320.111C321.26 354.756 322.192 353.824 322.192 352.675V352.675" stroke="#562B30" stroke-width="1.01777" stroke-linecap="round" stroke-linejoin="round"/>
<path d="M317.353 348.244V352.337C317.353 353.673 316.269 354.756 314.933 354.756H314.595C313.445 354.756 312.513 353.824 312.513 352.675V352.675" stroke="#562B30" stroke-width="1.01777" stroke-linecap="round" stroke-linejoin="round"/>
<ellipse cx="299.045" cy="352.193" rx="4.4893" ry="3.29215" fill="#FFB99B"/>
<ellipse cx="334.361" cy="352.193" rx="4.4893" ry="3.29215" fill="#FFB99B"/>
<g clip-path="url(#clip0_35_55)">
<path d="M328.25 364.531C328.697 363.609 328.843 362.702 328.757 361.869C328.686 361.185 328.879 360.482 329.282 359.897C329.31 359.856 329.34 359.816 329.37 359.776L330.542 358.237C331.207 357.364 331.134 356.142 330.342 355.5C329.52 354.835 328.278 355.037 327.592 355.937L326.949 356.781C326.368 357.544 325.472 357.991 324.56 357.968C323.669 357.947 322.719 358.2 321.8 358.808C318.61 360.913 315.032 362.362 311.284 363.011C307.536 363.66 303.798 363.478 300.31 362.528C298.129 361.934 296.133 362.995 295.037 364.638C293.936 366.288 293.743 368.525 295.18 370.264C296.926 372.375 299.151 374.088 301.755 375.236C308.594 378.251 316.812 376.828 322.845 371.585C325.144 369.586 326.968 367.17 328.25 364.531Z" fill="#EEBF00"/>
<path d="M329.282 359.897C329.31 359.856 329.34 359.816 329.37 359.776L329.985 358.969L330.542 358.237C331.207 357.364 331.134 356.142 330.342 355.5C329.52 354.835 328.278 355.037 327.592 355.937L326.998 356.717L326.949 356.781C326.368 357.544 325.472 357.991 324.56 357.968C323.669 357.947 322.719 358.2 321.8 358.808C318.61 360.913 315.032 362.362 311.284 363.011C307.536 363.66 303.798 363.478 300.31 362.528C298.129 361.934 296.133 362.995 295.037 364.638C299.709 369.018 306.153 370.996 312.723 370.068C319.25 369.145 325.274 365.442 329.282 359.897Z" fill="#FFD422"/>
<path d="M329.985 358.969L330.542 358.237C331.207 357.364 331.134 356.142 330.342 355.501C329.52 354.835 328.278 355.037 327.592 355.937L326.998 356.718C327.773 357.727 328.801 358.502 329.985 358.969Z" fill="#AA6100"/>
</g>
<g clip-path="url(#clip1_35_55)">
<path d="M338.967 318.833C338.809 318.306 338.537 317.894 338.2 317.595C337.923 317.35 337.744 317.002 337.691 316.624C337.687 316.598 337.684 316.571 337.682 316.545L337.586 315.509C337.532 314.922 337.059 314.466 336.512 314.5C335.945 314.535 335.527 315.067 335.583 315.672L335.635 316.24C335.683 316.753 335.491 317.255 335.121 317.578C334.761 317.893 334.478 318.339 334.335 318.913C333.838 320.906 332.949 322.779 331.702 324.399C330.455 326.018 328.91 327.304 327.185 328.196C326.105 328.754 325.701 329.899 325.865 330.948C326.029 332 326.766 332.956 327.966 333.121C329.425 333.322 330.928 333.191 332.375 332.699C336.177 331.406 338.911 327.856 339.392 323.589C339.575 321.962 339.419 320.343 338.967 318.833Z" fill="#EEBF00"/>
<path d="M337.691 316.624C337.687 316.598 337.684 316.571 337.682 316.545L337.632 316.002L337.586 315.509C337.532 314.922 337.059 314.466 336.512 314.5C335.945 314.535 335.527 315.067 335.583 315.672L335.631 316.197L335.635 316.24C335.683 316.753 335.491 317.255 335.121 317.578C334.761 317.893 334.478 318.339 334.335 318.913C333.838 320.906 332.949 322.779 331.702 324.399C330.455 326.018 328.91 327.304 327.185 328.196C326.105 328.754 325.701 329.899 325.865 330.948C329.306 330.982 332.574 329.423 334.836 326.667C337.083 323.93 338.121 320.275 337.691 316.624Z" fill="#FFD422"/>
<path d="M337.632 316.001L337.586 315.509C337.532 314.922 337.059 314.465 336.512 314.499C335.945 314.535 335.527 315.066 335.583 315.671L335.632 316.196C336.305 316.314 336.994 316.247 337.632 316.001Z" fill="#AA6100"/>
</g>
<g clip-path="url(#clip2_35_55)">
<path d="M290.772 316.99C290.638 316.638 290.613 316.3 290.672 315.997C290.72 315.748 290.671 315.484 290.542 315.257C290.533 315.241 290.524 315.225 290.514 315.209L290.133 314.607C289.917 314.265 289.984 313.819 290.295 313.609C290.618 313.392 291.067 313.506 291.29 313.858L291.499 314.188C291.687 314.487 292.002 314.68 292.337 314.701C292.665 314.721 293.005 314.845 293.323 315.097C294.426 315.972 295.692 316.619 297.046 316.978C298.401 317.336 299.778 317.389 301.088 317.153C301.908 317.005 302.606 317.459 302.956 318.097C303.306 318.737 303.306 319.565 302.722 320.156C302.014 320.875 301.142 321.432 300.15 321.769C297.544 322.656 294.574 321.87 292.529 319.752C291.749 318.945 291.158 318 290.772 316.99Z" fill="#EEBF00"/>
<path d="M290.542 315.257C290.533 315.241 290.524 315.225 290.514 315.209L290.314 314.893L290.133 314.607C289.917 314.265 289.984 313.819 290.295 313.609C290.618 313.392 291.067 313.506 291.29 313.858L291.483 314.163L291.499 314.188C291.687 314.487 292.002 314.68 292.337 314.701C292.665 314.721 293.005 314.845 293.323 315.097C294.426 315.972 295.692 316.619 297.046 316.978C298.401 317.336 299.778 317.389 301.088 317.153C301.908 317.005 302.606 317.459 302.956 318.097C301.1 319.554 298.673 320.073 296.291 319.521C293.926 318.972 291.835 317.42 290.542 315.257Z" fill="#FFD422"/>
<path d="M290.314 314.893L290.133 314.607C289.917 314.265 289.984 313.819 290.295 313.609C290.618 313.391 291.067 313.505 291.29 313.858L291.483 314.163C291.166 314.509 290.764 314.76 290.314 314.893Z" fill="#AA6100"/>
</g>
<defs>
<filter id="filter0_d_35_55" x="2.2793" y="0" width="379.721" height="814" filterUnits="userSpaceOnUse" color-interpolation-filters="sRGB">
<feFlood flood-opacity="0" result="BackgroundImageFix"/>
<feColorMatrix in="SourceAlpha" type="matrix" values="0 0 0 0 0 0 0 0 0 0 0 0 0 0 0 0 0 0 127 0" result="hardAlpha"/>
<feOffset dy="8"/>
<feComposite in2="hardAlpha" operator="out"/>
<feColorMatrix type="matrix" values="0 0 0 0 0.172622 0 0 0 0 0.679167 0 0 0 0 0.525668 0 0 0 1 0"/>
<feBlend mode="normal" in2="BackgroundImageFix" result="effect1_dropShadow_35_55"/>
<feBlend mode="normal" in="SourceGraphic" in2="effect1_dropShadow_35_55" result="shape"/>
</filter>
<filter id="filter1_f_35_55" x="139" y="-15" width="192.708" height="365" filterUnits="userSpaceOnUse" color-interpolation-filters="sRGB">
<feFlood flood-opacity="0" result="BackgroundImageFix"/>
<feBlend mode="normal" in="SourceGraphic" in2="BackgroundImageFix" result="shape"/>
<feGaussianBlur stdDeviation="4" result="effect1_foregroundBlur_35_55"/>
</filter>
<filter id="filter2_f_35_55" x="213.5" y="539.5" width="120.879" height="294.918" filterUnits="userSpaceOnUse" color-interpolation-filters="sRGB">
<feFlood flood-opacity="0" result="BackgroundImageFix"/>
<feBlend mode="normal" in="SourceGraphic" in2="BackgroundImageFix" result="shape"/>
<feGaussianBlur stdDeviation="4" result="effect1_foregroundBlur_35_55"/>
</filter>
<filter id="filter3_f_35_55" x="229.474" y="328.268" width="104.901" height="209.705" filterUnits="userSpaceOnUse" color-interpolation-filters="sRGB">
<feFlood flood-opacity="0" result="BackgroundImageFix"/>
<feBlend mode="normal" in="SourceGraphic" in2="BackgroundImageFix" result="shape"/>
<feGaussianBlur stdDeviation="4" result="effect1_foregroundBlur_35_55"/>
</filter>
<filter id="filter4_d_35_55" x="247.856" y="336.652" width="19" height="24.4072" filterUnits="userSpaceOnUse" color-interpolation-filters="sRGB">
<feFlood flood-opacity="0" result="BackgroundImageFix"/>
<feColorMatrix in="SourceAlpha" type="matrix" values="0 0 0 0 0 0 0 0 0 0 0 0 0 0 0 0 0 0 127 0" result="hardAlpha"/>
<feOffset dy="4"/>
<feComposite in2="hardAlpha" operator="out"/>
<feColorMatrix type="matrix" values="0 0 0 0 1 0 0 0 0 0.835982 0 0 0 0 0.251667 0 0 0 1 0"/>
<feBlend mode="normal" in2="BackgroundImageFix" result="effect1_dropShadow_35_55"/>
<feBlend mode="normal" in="SourceGraphic" in2="effect1_dropShadow_35_55" result="shape"/>
</filter>
<clipPath id="clip0_35_55">
<rect width="31.1258" height="33.5201" fill="white" transform="translate(310.678 340.521) rotate(37.2993)"/>
</clipPath>
<clipPath id="clip1_35_55">
<rect width="16.7229" height="18.0092" fill="white" transform="translate(323.287 315.72) rotate(-5.27369)"/>
</clipPath>
<clipPath id="clip2_35_55">
<rect width="11.4647" height="12.3466" fill="white" transform="matrix(-0.845318 0.534264 0.534264 0.845318 297.991 308.744)"/>
</clipPath>
</defs>
</svg>
