<svg width="206" height="393" viewBox="0 0 206 393" fill="none" xmlns="http://www.w3.org/2000/svg">
<circle cx="168.634" cy="127.131" r="2.52941" transform="rotate(-45.9387 168.634 127.131)" fill="white"/>
<circle cx="4.43751" cy="78.7948" r="2.52941" transform="rotate(-90.8696 4.43751 78.7948)" fill="white"/>
<circle cx="33.9987" cy="128.283" r="2.52941" transform="rotate(91.9739 33.9987 128.283)" fill="white"/>
<circle cx="88.2722" cy="96.017" r="2.52941" transform="rotate(91.9739 88.2722 96.017)" fill="white"/>
<circle cx="52.4885" cy="69.4745" r="2.52941" transform="rotate(91.9739 52.4885 69.4745)" fill="white"/>
<circle cx="41.1846" cy="-0.18323" r="2.52941" transform="rotate(-90.8696 41.1846 -0.18323)" fill="white"/>
<circle cx="107.406" cy="33.723" r="2.52941" transform="rotate(91.9739 107.406 33.723)" fill="white"/>
<circle cx="-1.16554" cy="337.096" r="2.52941" transform="rotate(-45.9366 -1.16554 337.096)" fill="white"/>
<circle cx="125.577" cy="294.577" r="2.52941" transform="rotate(-45.9366 125.577 294.577)" fill="white"/>
<circle cx="62.5767" cy="279.577" r="2.52941" transform="rotate(-45.9366 62.5767 279.577)" fill="white"/>
<circle cx="72.5767" cy="330.577" r="2.52941" transform="rotate(-45.9366 72.5767 330.577)" fill="white"/>
<circle cx="91.0332" cy="241.791" r="2.52941" transform="rotate(-45.9366 91.0332 241.791)" fill="white"/>
<circle cx="9.61486" cy="202.615" r="2.52941" transform="rotate(91.976 9.61486 202.615)" fill="white"/>
<circle cx="5.26867" cy="276.02" r="2.52941" transform="rotate(91.976 5.26867 276.02)" fill="white"/>
</svg>
